<svg version="1.1" xmlns="http://www.w3.org/2000/svg" xmlns:xlink="http://www.w3.org/1999/xlink" width="972" height="308"><defs/><g><text fill="#eeeeee" stroke="none" font-family="Arial" font-size="24px" font-style="normal" font-weight="normal" text-decoration="none" x="0" y="0">UNREGISTERED</text><text fill="#eeeeee" stroke="none" font-family="Arial" font-size="24px" font-style="normal" font-weight="normal" text-decoration="none" x="0" y="30">UNREGISTERED</text><text fill="#eeeeee" stroke="none" font-family="Arial" font-size="24px" font-style="normal" font-weight="normal" text-decoration="none" x="0" y="60">UNREGISTERED</text><text fill="#eeeeee" stroke="none" font-family="Arial" font-size="24px" font-style="normal" font-weight="normal" text-decoration="none" x="0" y="90">UNREGISTERED</text><text fill="#eeeeee" stroke="none" font-family="Arial" font-size="24px" font-style="normal" font-weight="normal" text-decoration="none" x="0" y="120">UNREGISTERED</text><text fill="#eeeeee" stroke="none" font-family="Arial" font-size="24px" font-style="normal" font-weight="normal" text-decoration="none" x="0" y="150">UNREGISTERED</text><text fill="#eeeeee" stroke="none" font-family="Arial" font-size="24px" font-style="normal" font-weight="normal" text-decoration="none" x="0" y="180">UNREGISTERED</text><text fill="#eeeeee" stroke="none" font-family="Arial" font-size="24px" font-style="normal" font-weight="normal" text-decoration="none" x="0" y="210">UNREGISTERED</text><text fill="#eeeeee" stroke="none" font-family="Arial" font-size="24px" font-style="normal" font-weight="normal" text-decoration="none" x="0" y="240">UNREGISTERED</text><text fill="#eeeeee" stroke="none" font-family="Arial" font-size="24px" font-style="normal" font-weight="normal" text-decoration="none" x="0" y="270">UNREGISTERED</text><text fill="#eeeeee" stroke="none" font-family="Arial" font-size="24px" font-style="normal" font-weight="normal" text-decoration="none" x="0" y="300">UNREGISTERED</text><text fill="#eeeeee" stroke="none" font-family="Arial" font-size="24px" font-style="normal" font-weight="normal" text-decoration="none" x="200" y="0">UNREGISTERED</text><text fill="#eeeeee" stroke="none" font-family="Arial" font-size="24px" font-style="normal" font-weight="normal" text-decoration="none" x="200" y="30">UNREGISTERED</text><text fill="#eeeeee" stroke="none" font-family="Arial" font-size="24px" font-style="normal" font-weight="normal" text-decoration="none" x="200" y="60">UNREGISTERED</text><text fill="#eeeeee" stroke="none" font-family="Arial" font-size="24px" font-style="normal" font-weight="normal" text-decoration="none" x="200" y="90">UNREGISTERED</text><text fill="#eeeeee" stroke="none" font-family="Arial" font-size="24px" font-style="normal" font-weight="normal" text-decoration="none" x="200" y="120">UNREGISTERED</text><text fill="#eeeeee" stroke="none" font-family="Arial" font-size="24px" font-style="normal" font-weight="normal" text-decoration="none" x="200" y="150">UNREGISTERED</text><text fill="#eeeeee" stroke="none" font-family="Arial" font-size="24px" font-style="normal" font-weight="normal" text-decoration="none" x="200" y="180">UNREGISTERED</text><text fill="#eeeeee" stroke="none" font-family="Arial" font-size="24px" font-style="normal" font-weight="normal" text-decoration="none" x="200" y="210">UNREGISTERED</text><text fill="#eeeeee" stroke="none" font-family="Arial" font-size="24px" font-style="normal" font-weight="normal" text-decoration="none" x="200" y="240">UNREGISTERED</text><text fill="#eeeeee" stroke="none" font-family="Arial" font-size="24px" font-style="normal" font-weight="normal" text-decoration="none" x="200" y="270">UNREGISTERED</text><text fill="#eeeeee" stroke="none" font-family="Arial" font-size="24px" font-style="normal" font-weight="normal" text-decoration="none" x="200" y="300">UNREGISTERED</text><text fill="#eeeeee" stroke="none" font-family="Arial" font-size="24px" font-style="normal" font-weight="normal" text-decoration="none" x="400" y="0">UNREGISTERED</text><text fill="#eeeeee" stroke="none" font-family="Arial" font-size="24px" font-style="normal" font-weight="normal" text-decoration="none" x="400" y="30">UNREGISTERED</text><text fill="#eeeeee" stroke="none" font-family="Arial" font-size="24px" font-style="normal" font-weight="normal" text-decoration="none" x="400" y="60">UNREGISTERED</text><text fill="#eeeeee" stroke="none" font-family="Arial" font-size="24px" font-style="normal" font-weight="normal" text-decoration="none" x="400" y="90">UNREGISTERED</text><text fill="#eeeeee" stroke="none" font-family="Arial" font-size="24px" font-style="normal" font-weight="normal" text-decoration="none" x="400" y="120">UNREGISTERED</text><text fill="#eeeeee" stroke="none" font-family="Arial" font-size="24px" font-style="normal" font-weight="normal" text-decoration="none" x="400" y="150">UNREGISTERED</text><text fill="#eeeeee" stroke="none" font-family="Arial" font-size="24px" font-style="normal" font-weight="normal" text-decoration="none" x="400" y="180">UNREGISTERED</text><text fill="#eeeeee" stroke="none" font-family="Arial" font-size="24px" font-style="normal" font-weight="normal" text-decoration="none" x="400" y="210">UNREGISTERED</text><text fill="#eeeeee" stroke="none" font-family="Arial" font-size="24px" font-style="normal" font-weight="normal" text-decoration="none" x="400" y="240">UNREGISTERED</text><text fill="#eeeeee" stroke="none" font-family="Arial" font-size="24px" font-style="normal" font-weight="normal" text-decoration="none" x="400" y="270">UNREGISTERED</text><text fill="#eeeeee" stroke="none" font-family="Arial" font-size="24px" font-style="normal" font-weight="normal" text-decoration="none" x="400" y="300">UNREGISTERED</text><text fill="#eeeeee" stroke="none" font-family="Arial" font-size="24px" font-style="normal" font-weight="normal" text-decoration="none" x="600" y="0">UNREGISTERED</text><text fill="#eeeeee" stroke="none" font-family="Arial" font-size="24px" font-style="normal" font-weight="normal" text-decoration="none" x="600" y="30">UNREGISTERED</text><text fill="#eeeeee" stroke="none" font-family="Arial" font-size="24px" font-style="normal" font-weight="normal" text-decoration="none" x="600" y="60">UNREGISTERED</text><text fill="#eeeeee" stroke="none" font-family="Arial" font-size="24px" font-style="normal" font-weight="normal" text-decoration="none" x="600" y="90">UNREGISTERED</text><text fill="#eeeeee" stroke="none" font-family="Arial" font-size="24px" font-style="normal" font-weight="normal" text-decoration="none" x="600" y="120">UNREGISTERED</text><text fill="#eeeeee" stroke="none" font-family="Arial" font-size="24px" font-style="normal" font-weight="normal" text-decoration="none" x="600" y="150">UNREGISTERED</text><text fill="#eeeeee" stroke="none" font-family="Arial" font-size="24px" font-style="normal" font-weight="normal" text-decoration="none" x="600" y="180">UNREGISTERED</text><text fill="#eeeeee" stroke="none" font-family="Arial" font-size="24px" font-style="normal" font-weight="normal" text-decoration="none" x="600" y="210">UNREGISTERED</text><text fill="#eeeeee" stroke="none" font-family="Arial" font-size="24px" font-style="normal" font-weight="normal" text-decoration="none" x="600" y="240">UNREGISTERED</text><text fill="#eeeeee" stroke="none" font-family="Arial" font-size="24px" font-style="normal" font-weight="normal" text-decoration="none" x="600" y="270">UNREGISTERED</text><text fill="#eeeeee" stroke="none" font-family="Arial" font-size="24px" font-style="normal" font-weight="normal" text-decoration="none" x="600" y="300">UNREGISTERED</text><text fill="#eeeeee" stroke="none" font-family="Arial" font-size="24px" font-style="normal" font-weight="normal" text-decoration="none" x="800" y="0">UNREGISTERED</text><text fill="#eeeeee" stroke="none" font-family="Arial" font-size="24px" font-style="normal" font-weight="normal" text-decoration="none" x="800" y="30">UNREGISTERED</text><text fill="#eeeeee" stroke="none" font-family="Arial" font-size="24px" font-style="normal" font-weight="normal" text-decoration="none" x="800" y="60">UNREGISTERED</text><text fill="#eeeeee" stroke="none" font-family="Arial" font-size="24px" font-style="normal" font-weight="normal" text-decoration="none" x="800" y="90">UNREGISTERED</text><text fill="#eeeeee" stroke="none" font-family="Arial" font-size="24px" font-style="normal" font-weight="normal" text-decoration="none" x="800" y="120">UNREGISTERED</text><text fill="#eeeeee" stroke="none" font-family="Arial" font-size="24px" font-style="normal" font-weight="normal" text-decoration="none" x="800" y="150">UNREGISTERED</text><text fill="#eeeeee" stroke="none" font-family="Arial" font-size="24px" font-style="normal" font-weight="normal" text-decoration="none" x="800" y="180">UNREGISTERED</text><text fill="#eeeeee" stroke="none" font-family="Arial" font-size="24px" font-style="normal" font-weight="normal" text-decoration="none" x="800" y="210">UNREGISTERED</text><text fill="#eeeeee" stroke="none" font-family="Arial" font-size="24px" font-style="normal" font-weight="normal" text-decoration="none" x="800" y="240">UNREGISTERED</text><text fill="#eeeeee" stroke="none" font-family="Arial" font-size="24px" font-style="normal" font-weight="normal" text-decoration="none" x="800" y="270">UNREGISTERED</text><text fill="#eeeeee" stroke="none" font-family="Arial" font-size="24px" font-style="normal" font-weight="normal" text-decoration="none" x="800" y="300">UNREGISTERED</text><g transform="translate(-38,-30) scale(1,1)"><rect fill="#ffffff" stroke="none" x="48" y="40" width="952" height="288"/></g><g transform="translate(-38,-30) scale(1,1)"><path fill="none" stroke="#000000" d="M 48 40 L 1000 40 L 1000 328 L 48 328 L 48 40 Z Z" stroke-miterlimit="10"/></g><g transform="translate(-38,-30) scale(1,1)"><path fill="#C0C0C0" stroke="none" d="M 119 104.5 C 119 99.2532944 123.2532944 95 128.5 95 C 133.7467056 95 138 99.2532944 138 104.5 C 138 109.7467056 133.7467056 114 128.5 114 C 123.2532944 114 119 109.7467056 119 104.5 Z" opacity="0.2"/></g><g transform="translate(-38,-30) scale(1,1)"><path fill="#000000" stroke="none" d="M 112 97.5 C 112 92.2532944 116.2532944 88 121.5 88 C 126.7467056 88 131 92.2532944 131 97.5 C 131 102.7467056 126.7467056 107 121.5 107 C 116.2532944 107 112 102.7467056 112 97.5 Z"/></g><g transform="translate(-38,-30) scale(1,1)"><path fill="#C0C0C0" stroke="none" d="M 377 87 L 466.4072265625 87 Q 476.4072265625 87 476.4072265625 97 L 476.4072265625 116 Q 476.4072265625 126 466.4072265625 126 L 377 126 Q 367 126 367 116 L 367 97 Q 367 87 377 87 Z" opacity="0.2"/></g><g transform="translate(-38,-30) scale(1,1)"><path fill="#ffffff" stroke="none" d="M 370 80 L 459.4072265625 80 Q 469.4072265625 80 469.4072265625 90 L 469.4072265625 109 Q 469.4072265625 119 459.4072265625 119 L 370 119 Q 360 119 360 109 L 360 90 Q 360 80 370 80 Z"/></g><g transform="translate(-38,-30) scale(1,1)"><path fill="none" stroke="#000000" d="M 370 80 L 459.4072265625 80 Q 469.4072265625 80 469.4072265625 90 L 469.4072265625 109 Q 469.4072265625 119 459.4072265625 119 L 370 119 Q 360 119 360 109 L 360 90 Q 360 80 370 80 Z" stroke-miterlimit="10"/></g><g transform="translate(-38,-30) scale(1,1)"><g><path fill="none" stroke="none"/><text fill="#000000" stroke="none" font-family="Arial" font-size="13px" font-style="normal" font-weight="bold" text-decoration="none" x="364.5" y="97.5">Coleta os dados</text></g></g><g transform="translate(-38,-30) scale(1,1)"><path fill="none" stroke="#000000" d="M 132 97 L 359 99" stroke-miterlimit="10"/></g><g transform="translate(-38,-30) scale(1,1)"><path fill="none" stroke="#000000" d="M 348.80063274154196 103.11981887066588 L 359 99 L 348.87480638702414 94.70111010844043" stroke-miterlimit="10"/></g><g transform="translate(-38,-30) scale(1,1)"><g><path fill="none" stroke="none"/><text fill="#000000" stroke="none" font-family="Arial" font-size="13px" font-style="normal" font-weight="normal" text-decoration="none" x="190.5" y="87.5">Recebe solicitação</text></g></g><g transform="translate(-38,-30) scale(1,1)"><path fill="#C0C0C0" stroke="none" d="M 815 115.5 C 815 108.59644 820.59644 103 827.5 103 C 834.40356 103 840 108.59644 840 115.5 C 840 122.40356 834.40356 128 827.5 128 C 820.59644 128 815 122.40356 815 115.5 Z" opacity="0.2"/></g><g transform="translate(-38,-30) scale(1,1)"><path fill="none" stroke="#000000" d="M 808 108.5 C 808 101.59644 813.59644 96 820.5 96 C 827.40356 96 833 101.59644 833 108.5 C 833 115.40356 827.40356 121 820.5 121 C 813.59644 121 808 115.40356 808 108.5 Z" stroke-miterlimit="10"/></g><g transform="translate(-38,-30) scale(1,1)"><path fill="#000000" stroke="none" d="M 813 108.5 C 813 104.357864 816.357864 101 820.5 101 C 824.642136 101 828 104.357864 828 108.5 C 828 112.642136 824.642136 116 820.5 116 C 816.357864 116 813 112.642136 813 108.5 Z"/></g><g transform="translate(-38,-30) scale(1,1)"><path fill="none" stroke="#000000" d="M 470 100 L 807 108" stroke-miterlimit="10"/></g><g transform="translate(-38,-30) scale(1,1)"><path fill="none" stroke="#000000" d="M 796.7402863793778 111.96714965974577 L 807 108 L 796.9400884994379 103.55048535221425" stroke-miterlimit="10"/></g><g transform="translate(-38,-30) scale(1,1)"><g><path fill="none" stroke="none"/><text fill="#000000" stroke="none" font-family="Arial" font-size="13px" font-style="normal" font-weight="normal" text-decoration="none" x="586.5" y="93.5">Retorna os dados</text></g></g><g transform="translate(-38,-30) scale(1,1)"><path fill="#C0C0C0" stroke="none" d="M 337 207 L 436 207 Q 446 207 446 217 L 446 244 Q 446 254 436 254 L 337 254 Q 327 254 327 244 L 327 217 Q 327 207 337 207 Z" opacity="0.2"/></g><g transform="translate(-38,-30) scale(1,1)"><path fill="#ffffff" stroke="none" d="M 330 200 L 429 200 Q 439 200 439 210 L 439 237 Q 439 247 429 247 L 330 247 Q 320 247 320 237 L 320 210 Q 320 200 330 200 Z"/></g><g transform="translate(-38,-30) scale(1,1)"><path fill="none" stroke="#000000" d="M 330 200 L 429 200 Q 439 200 439 210 L 439 237 Q 439 247 429 247 L 330 247 Q 320 247 320 237 L 320 210 Q 320 200 330 200 Z" stroke-miterlimit="10"/></g><g transform="translate(-38,-30) scale(1,1)"><g><path fill="none" stroke="none"/><text fill="#000000" stroke="none" font-family="Arial" font-size="13px" font-style="normal" font-weight="bold" text-decoration="none" x="328.106201171875" y="217.5">Armazena URL's</text></g></g><g transform="translate(-38,-30) scale(1,1)"><path fill="none" stroke="#000000" d="M 132 102 L 330 199" stroke-miterlimit="10"/></g><g transform="translate(-38,-30) scale(1,1)"><path fill="none" stroke="#000000" d="M 319.02170824039666 198.30926847398928 L 330 199 L 322.7255963969616 190.74875450491857" stroke-miterlimit="10"/></g><g transform="translate(-38,-30) scale(1,1)"><g><path fill="none" stroke="none"/><text fill="#000000" stroke="none" font-family="Arial" font-size="13px" font-style="normal" font-weight="normal" text-decoration="none" x="133.5" y="177.5">Recebe dados e URL's</text></g></g><g transform="translate(-38,-30) scale(1,1)"><path fill="#C0C0C0" stroke="none" d="M 617 207 L 710.03173828125 207 Q 720.03173828125 207 720.03173828125 217 L 720.03173828125 244 Q 720.03173828125 254 710.03173828125 254 L 617 254 Q 607 254 607 244 L 607 217 Q 607 207 617 207 Z" opacity="0.2"/></g><g transform="translate(-38,-30) scale(1,1)"><path fill="#ffffff" stroke="none" d="M 610 200 L 703.03173828125 200 Q 713.03173828125 200 713.03173828125 210 L 713.03173828125 237 Q 713.03173828125 247 703.03173828125 247 L 610 247 Q 600 247 600 237 L 600 210 Q 600 200 610 200 Z"/></g><g transform="translate(-38,-30) scale(1,1)"><path fill="none" stroke="#000000" d="M 610 200 L 703.03173828125 200 Q 713.03173828125 200 713.03173828125 210 L 713.03173828125 237 Q 713.03173828125 247 703.03173828125 247 L 610 247 Q 600 247 600 237 L 600 210 Q 600 200 610 200 Z" stroke-miterlimit="10"/></g><g transform="translate(-38,-30) scale(1,1)"><g><path fill="none" stroke="none"/><text fill="#000000" stroke="none" font-family="Arial" font-size="13px" font-style="normal" font-weight="bold" text-decoration="none" x="604.5" y="217.5">Armazena dados</text></g></g><g transform="translate(-38,-30) scale(1,1)"><path fill="none" stroke="#000000" d="M 440 223 L 599 223" stroke-miterlimit="10"/></g><g transform="translate(-38,-30) scale(1,1)"><path fill="none" stroke="#000000" d="M 588.8373251423759 227.209517756016 L 599 223 L 588.8373251423758 218.790482243984" stroke-miterlimit="10"/></g><g transform="translate(-38,-30) scale(1,1)"><g><path fill="none" stroke="none"/><text fill="#000000" stroke="none" font-family="Arial" font-size="13px" font-style="normal" font-weight="normal" text-decoration="none" x="453.5" y="212.5">Mapeia URL's e dados</text></g></g><g transform="translate(-38,-30) scale(1,1)"><path fill="none" stroke="#000000" d="M 690 199 L 807 117" stroke-miterlimit="10"/></g><g transform="translate(-38,-30) scale(1,1)"><path fill="none" stroke="#000000" d="M 801.0937323348136 126.27987081090969 L 807 117 L 796.2617785035145 119.3854976613732" stroke-miterlimit="10"/></g><g transform="translate(-38,-30) scale(1,1)"><g><path fill="none" stroke="none"/><text fill="#000000" stroke="none" font-family="Arial" font-size="13px" font-style="normal" font-weight="normal" text-decoration="none" x="743.5" y="175.5">Dados armazenados com sucesso!</text></g></g></g></svg>