<svg version="1.1" xmlns="http://www.w3.org/2000/svg" xmlns:xlink="http://www.w3.org/1999/xlink" width="1204" height="276"><defs/><g><text fill="#eeeeee" stroke="none" font-family="Arial" font-size="24px" font-style="normal" font-weight="normal" text-decoration="none" x="0" y="0">UNREGISTERED</text><text fill="#eeeeee" stroke="none" font-family="Arial" font-size="24px" font-style="normal" font-weight="normal" text-decoration="none" x="0" y="30">UNREGISTERED</text><text fill="#eeeeee" stroke="none" font-family="Arial" font-size="24px" font-style="normal" font-weight="normal" text-decoration="none" x="0" y="60">UNREGISTERED</text><text fill="#eeeeee" stroke="none" font-family="Arial" font-size="24px" font-style="normal" font-weight="normal" text-decoration="none" x="0" y="90">UNREGISTERED</text><text fill="#eeeeee" stroke="none" font-family="Arial" font-size="24px" font-style="normal" font-weight="normal" text-decoration="none" x="0" y="120">UNREGISTERED</text><text fill="#eeeeee" stroke="none" font-family="Arial" font-size="24px" font-style="normal" font-weight="normal" text-decoration="none" x="0" y="150">UNREGISTERED</text><text fill="#eeeeee" stroke="none" font-family="Arial" font-size="24px" font-style="normal" font-weight="normal" text-decoration="none" x="0" y="180">UNREGISTERED</text><text fill="#eeeeee" stroke="none" font-family="Arial" font-size="24px" font-style="normal" font-weight="normal" text-decoration="none" x="0" y="210">UNREGISTERED</text><text fill="#eeeeee" stroke="none" font-family="Arial" font-size="24px" font-style="normal" font-weight="normal" text-decoration="none" x="0" y="240">UNREGISTERED</text><text fill="#eeeeee" stroke="none" font-family="Arial" font-size="24px" font-style="normal" font-weight="normal" text-decoration="none" x="0" y="270">UNREGISTERED</text><text fill="#eeeeee" stroke="none" font-family="Arial" font-size="24px" font-style="normal" font-weight="normal" text-decoration="none" x="200" y="0">UNREGISTERED</text><text fill="#eeeeee" stroke="none" font-family="Arial" font-size="24px" font-style="normal" font-weight="normal" text-decoration="none" x="200" y="30">UNREGISTERED</text><text fill="#eeeeee" stroke="none" font-family="Arial" font-size="24px" font-style="normal" font-weight="normal" text-decoration="none" x="200" y="60">UNREGISTERED</text><text fill="#eeeeee" stroke="none" font-family="Arial" font-size="24px" font-style="normal" font-weight="normal" text-decoration="none" x="200" y="90">UNREGISTERED</text><text fill="#eeeeee" stroke="none" font-family="Arial" font-size="24px" font-style="normal" font-weight="normal" text-decoration="none" x="200" y="120">UNREGISTERED</text><text fill="#eeeeee" stroke="none" font-family="Arial" font-size="24px" font-style="normal" font-weight="normal" text-decoration="none" x="200" y="150">UNREGISTERED</text><text fill="#eeeeee" stroke="none" font-family="Arial" font-size="24px" font-style="normal" font-weight="normal" text-decoration="none" x="200" y="180">UNREGISTERED</text><text fill="#eeeeee" stroke="none" font-family="Arial" font-size="24px" font-style="normal" font-weight="normal" text-decoration="none" x="200" y="210">UNREGISTERED</text><text fill="#eeeeee" stroke="none" font-family="Arial" font-size="24px" font-style="normal" font-weight="normal" text-decoration="none" x="200" y="240">UNREGISTERED</text><text fill="#eeeeee" stroke="none" font-family="Arial" font-size="24px" font-style="normal" font-weight="normal" text-decoration="none" x="200" y="270">UNREGISTERED</text><text fill="#eeeeee" stroke="none" font-family="Arial" font-size="24px" font-style="normal" font-weight="normal" text-decoration="none" x="400" y="0">UNREGISTERED</text><text fill="#eeeeee" stroke="none" font-family="Arial" font-size="24px" font-style="normal" font-weight="normal" text-decoration="none" x="400" y="30">UNREGISTERED</text><text fill="#eeeeee" stroke="none" font-family="Arial" font-size="24px" font-style="normal" font-weight="normal" text-decoration="none" x="400" y="60">UNREGISTERED</text><text fill="#eeeeee" stroke="none" font-family="Arial" font-size="24px" font-style="normal" font-weight="normal" text-decoration="none" x="400" y="90">UNREGISTERED</text><text fill="#eeeeee" stroke="none" font-family="Arial" font-size="24px" font-style="normal" font-weight="normal" text-decoration="none" x="400" y="120">UNREGISTERED</text><text fill="#eeeeee" stroke="none" font-family="Arial" font-size="24px" font-style="normal" font-weight="normal" text-decoration="none" x="400" y="150">UNREGISTERED</text><text fill="#eeeeee" stroke="none" font-family="Arial" font-size="24px" font-style="normal" font-weight="normal" text-decoration="none" x="400" y="180">UNREGISTERED</text><text fill="#eeeeee" stroke="none" font-family="Arial" font-size="24px" font-style="normal" font-weight="normal" text-decoration="none" x="400" y="210">UNREGISTERED</text><text fill="#eeeeee" stroke="none" font-family="Arial" font-size="24px" font-style="normal" font-weight="normal" text-decoration="none" x="400" y="240">UNREGISTERED</text><text fill="#eeeeee" stroke="none" font-family="Arial" font-size="24px" font-style="normal" font-weight="normal" text-decoration="none" x="400" y="270">UNREGISTERED</text><text fill="#eeeeee" stroke="none" font-family="Arial" font-size="24px" font-style="normal" font-weight="normal" text-decoration="none" x="600" y="0">UNREGISTERED</text><text fill="#eeeeee" stroke="none" font-family="Arial" font-size="24px" font-style="normal" font-weight="normal" text-decoration="none" x="600" y="30">UNREGISTERED</text><text fill="#eeeeee" stroke="none" font-family="Arial" font-size="24px" font-style="normal" font-weight="normal" text-decoration="none" x="600" y="60">UNREGISTERED</text><text fill="#eeeeee" stroke="none" font-family="Arial" font-size="24px" font-style="normal" font-weight="normal" text-decoration="none" x="600" y="90">UNREGISTERED</text><text fill="#eeeeee" stroke="none" font-family="Arial" font-size="24px" font-style="normal" font-weight="normal" text-decoration="none" x="600" y="120">UNREGISTERED</text><text fill="#eeeeee" stroke="none" font-family="Arial" font-size="24px" font-style="normal" font-weight="normal" text-decoration="none" x="600" y="150">UNREGISTERED</text><text fill="#eeeeee" stroke="none" font-family="Arial" font-size="24px" font-style="normal" font-weight="normal" text-decoration="none" x="600" y="180">UNREGISTERED</text><text fill="#eeeeee" stroke="none" font-family="Arial" font-size="24px" font-style="normal" font-weight="normal" text-decoration="none" x="600" y="210">UNREGISTERED</text><text fill="#eeeeee" stroke="none" font-family="Arial" font-size="24px" font-style="normal" font-weight="normal" text-decoration="none" x="600" y="240">UNREGISTERED</text><text fill="#eeeeee" stroke="none" font-family="Arial" font-size="24px" font-style="normal" font-weight="normal" text-decoration="none" x="600" y="270">UNREGISTERED</text><text fill="#eeeeee" stroke="none" font-family="Arial" font-size="24px" font-style="normal" font-weight="normal" text-decoration="none" x="800" y="0">UNREGISTERED</text><text fill="#eeeeee" stroke="none" font-family="Arial" font-size="24px" font-style="normal" font-weight="normal" text-decoration="none" x="800" y="30">UNREGISTERED</text><text fill="#eeeeee" stroke="none" font-family="Arial" font-size="24px" font-style="normal" font-weight="normal" text-decoration="none" x="800" y="60">UNREGISTERED</text><text fill="#eeeeee" stroke="none" font-family="Arial" font-size="24px" font-style="normal" font-weight="normal" text-decoration="none" x="800" y="90">UNREGISTERED</text><text fill="#eeeeee" stroke="none" font-family="Arial" font-size="24px" font-style="normal" font-weight="normal" text-decoration="none" x="800" y="120">UNREGISTERED</text><text fill="#eeeeee" stroke="none" font-family="Arial" font-size="24px" font-style="normal" font-weight="normal" text-decoration="none" x="800" y="150">UNREGISTERED</text><text fill="#eeeeee" stroke="none" font-family="Arial" font-size="24px" font-style="normal" font-weight="normal" text-decoration="none" x="800" y="180">UNREGISTERED</text><text fill="#eeeeee" stroke="none" font-family="Arial" font-size="24px" font-style="normal" font-weight="normal" text-decoration="none" x="800" y="210">UNREGISTERED</text><text fill="#eeeeee" stroke="none" font-family="Arial" font-size="24px" font-style="normal" font-weight="normal" text-decoration="none" x="800" y="240">UNREGISTERED</text><text fill="#eeeeee" stroke="none" font-family="Arial" font-size="24px" font-style="normal" font-weight="normal" text-decoration="none" x="800" y="270">UNREGISTERED</text><text fill="#eeeeee" stroke="none" font-family="Arial" font-size="24px" font-style="normal" font-weight="normal" text-decoration="none" x="1000" y="0">UNREGISTERED</text><text fill="#eeeeee" stroke="none" font-family="Arial" font-size="24px" font-style="normal" font-weight="normal" text-decoration="none" x="1000" y="30">UNREGISTERED</text><text fill="#eeeeee" stroke="none" font-family="Arial" font-size="24px" font-style="normal" font-weight="normal" text-decoration="none" x="1000" y="60">UNREGISTERED</text><text fill="#eeeeee" stroke="none" font-family="Arial" font-size="24px" font-style="normal" font-weight="normal" text-decoration="none" x="1000" y="90">UNREGISTERED</text><text fill="#eeeeee" stroke="none" font-family="Arial" font-size="24px" font-style="normal" font-weight="normal" text-decoration="none" x="1000" y="120">UNREGISTERED</text><text fill="#eeeeee" stroke="none" font-family="Arial" font-size="24px" font-style="normal" font-weight="normal" text-decoration="none" x="1000" y="150">UNREGISTERED</text><text fill="#eeeeee" stroke="none" font-family="Arial" font-size="24px" font-style="normal" font-weight="normal" text-decoration="none" x="1000" y="180">UNREGISTERED</text><text fill="#eeeeee" stroke="none" font-family="Arial" font-size="24px" font-style="normal" font-weight="normal" text-decoration="none" x="1000" y="210">UNREGISTERED</text><text fill="#eeeeee" stroke="none" font-family="Arial" font-size="24px" font-style="normal" font-weight="normal" text-decoration="none" x="1000" y="240">UNREGISTERED</text><text fill="#eeeeee" stroke="none" font-family="Arial" font-size="24px" font-style="normal" font-weight="normal" text-decoration="none" x="1000" y="270">UNREGISTERED</text><text fill="#eeeeee" stroke="none" font-family="Arial" font-size="24px" font-style="normal" font-weight="normal" text-decoration="none" x="1200" y="0">UNREGISTERED</text><text fill="#eeeeee" stroke="none" font-family="Arial" font-size="24px" font-style="normal" font-weight="normal" text-decoration="none" x="1200" y="30">UNREGISTERED</text><text fill="#eeeeee" stroke="none" font-family="Arial" font-size="24px" font-style="normal" font-weight="normal" text-decoration="none" x="1200" y="60">UNREGISTERED</text><text fill="#eeeeee" stroke="none" font-family="Arial" font-size="24px" font-style="normal" font-weight="normal" text-decoration="none" x="1200" y="90">UNREGISTERED</text><text fill="#eeeeee" stroke="none" font-family="Arial" font-size="24px" font-style="normal" font-weight="normal" text-decoration="none" x="1200" y="120">UNREGISTERED</text><text fill="#eeeeee" stroke="none" font-family="Arial" font-size="24px" font-style="normal" font-weight="normal" text-decoration="none" x="1200" y="150">UNREGISTERED</text><text fill="#eeeeee" stroke="none" font-family="Arial" font-size="24px" font-style="normal" font-weight="normal" text-decoration="none" x="1200" y="180">UNREGISTERED</text><text fill="#eeeeee" stroke="none" font-family="Arial" font-size="24px" font-style="normal" font-weight="normal" text-decoration="none" x="1200" y="210">UNREGISTERED</text><text fill="#eeeeee" stroke="none" font-family="Arial" font-size="24px" font-style="normal" font-weight="normal" text-decoration="none" x="1200" y="240">UNREGISTERED</text><text fill="#eeeeee" stroke="none" font-family="Arial" font-size="24px" font-style="normal" font-weight="normal" text-decoration="none" x="1200" y="270">UNREGISTERED</text><g transform="translate(-22,-14) scale(1,1)"><rect fill="#ffffff" stroke="none" x="32" y="24" width="1184" height="256"/></g><g transform="translate(-22,-14) scale(1,1)"><path fill="none" stroke="#000000" d="M 32 24 L 1216 24 L 1216 280 L 32 280 L 32 24 Z Z" stroke-miterlimit="10"/></g><g transform="translate(-22,-14) scale(1,1)"><path fill="#C0C0C0" stroke="none" d="M 87 72.5 C 87 67.2532944 91.2532944 63 96.5 63 C 101.7467056 63 106 67.2532944 106 72.5 C 106 77.7467056 101.7467056 82 96.5 82 C 91.2532944 82 87 77.7467056 87 72.5 Z" opacity="0.2"/></g><g transform="translate(-22,-14) scale(1,1)"><path fill="#000000" stroke="none" d="M 80 65.5 C 80 60.2532944 84.2532944 56 89.5 56 C 94.7467056 56 99 60.2532944 99 65.5 C 99 70.7467056 94.7467056 75 89.5 75 C 84.2532944 75 80 70.7467056 80 65.5 Z"/></g><g transform="translate(-22,-14) scale(1,1)"><path fill="#C0C0C0" stroke="none" d="M 305 55 L 460.15625 55 Q 470.15625 55 470.15625 65 L 470.15625 92 Q 470.15625 102 460.15625 102 L 305 102 Q 295 102 295 92 L 295 65 Q 295 55 305 55 Z" opacity="0.2"/></g><g transform="translate(-22,-14) scale(1,1)"><path fill="#ffffff" stroke="none" d="M 298 48 L 453.15625 48 Q 463.15625 48 463.15625 58 L 463.15625 85 Q 463.15625 95 453.15625 95 L 298 95 Q 288 95 288 85 L 288 58 Q 288 48 298 48 Z"/></g><g transform="translate(-22,-14) scale(1,1)"><path fill="none" stroke="#000000" d="M 298 48 L 453.15625 48 Q 463.15625 48 463.15625 58 L 463.15625 85 Q 463.15625 95 453.15625 95 L 298 95 Q 288 95 288 85 L 288 58 Q 288 48 298 48 Z" stroke-miterlimit="10"/></g><g transform="translate(-22,-14) scale(1,1)"><g><path fill="none" stroke="none"/><text fill="#000000" stroke="none" font-family="Arial" font-size="13px" font-style="normal" font-weight="bold" text-decoration="none" x="292.5" y="65.5">Lista de Links normalizada</text></g></g><g transform="translate(-22,-14) scale(1,1)"><path fill="none" stroke="#000000" d="M 100 65 L 287 69" stroke-miterlimit="10"/></g><g transform="translate(-22,-14) scale(1,1)"><path fill="none" stroke="#000000" d="M 276.74962673311916 72.99122135312167 L 287 69 L 276.9296718692864 64.57411123730412" stroke-miterlimit="10"/></g><g transform="translate(-22,-14) scale(1,1)"><g><path fill="none" stroke="none"/><text fill="#000000" stroke="none" font-family="Arial" font-size="13px" font-style="normal" font-weight="normal" text-decoration="none" x="117.5" y="55.5">Normaliza lista de links</text></g></g><g transform="translate(-22,-14) scale(1,1)"><path fill="#C0C0C0" stroke="none" d="M 337 183 L 444 183 Q 454 183 454 193 L 454 221 Q 454 231 444 231 L 337 231 Q 327 231 327 221 L 327 193 Q 327 183 337 183 Z" opacity="0.2"/></g><g transform="translate(-22,-14) scale(1,1)"><path fill="#ffffff" stroke="none" d="M 330 176 L 437 176 Q 447 176 447 186 L 447 214 Q 447 224 437 224 L 330 224 Q 320 224 320 214 L 320 186 Q 320 176 330 176 Z"/></g><g transform="translate(-22,-14) scale(1,1)"><path fill="none" stroke="#000000" d="M 330 176 L 437 176 Q 447 176 447 186 L 447 214 Q 447 224 437 224 L 330 224 Q 320 224 320 214 L 320 186 Q 320 176 330 176 Z" stroke-miterlimit="10"/></g><g transform="translate(-22,-14) scale(1,1)"><g><path fill="none" stroke="none"/><text fill="#000000" stroke="none" font-family="Arial" font-size="13px" font-style="normal" font-weight="bold" text-decoration="none" x="332.56640625" y="193.5">Links mapeados</text></g></g><g transform="translate(-22,-14) scale(1,1)"><path fill="none" stroke="#000000" d="M 377 96 L 381 175" stroke-miterlimit="10"/></g><g transform="translate(-22,-14) scale(1,1)"><path fill="none" stroke="#000000" d="M 376.2819603567701 165.06319458151106 L 381 175 L 384.69022466910997 164.63745967962043" stroke-miterlimit="10"/></g><g transform="translate(-22,-14) scale(1,1)"><g><path fill="none" stroke="none"/><text fill="#000000" stroke="none" font-family="Arial" font-size="13px" font-style="normal" font-weight="normal" text-decoration="none" x="389.5" y="125.5">mapear links</text></g></g><g transform="translate(-22,-14) scale(1,1)"><path fill="#C0C0C0" stroke="none" d="M 561 55 L 653.3017578125 55 Q 663.3017578125 55 663.3017578125 65 L 663.3017578125 100 Q 663.3017578125 110 653.3017578125 110 L 561 110 Q 551 110 551 100 L 551 65 Q 551 55 561 55 Z" opacity="0.2"/></g><g transform="translate(-22,-14) scale(1,1)"><path fill="#ffffff" stroke="none" d="M 554 48 L 646.3017578125 48 Q 656.3017578125 48 656.3017578125 58 L 656.3017578125 93 Q 656.3017578125 103 646.3017578125 103 L 554 103 Q 544 103 544 93 L 544 58 Q 544 48 554 48 Z"/></g><g transform="translate(-22,-14) scale(1,1)"><path fill="none" stroke="#000000" d="M 554 48 L 646.3017578125 48 Q 656.3017578125 48 656.3017578125 58 L 656.3017578125 93 Q 656.3017578125 103 646.3017578125 103 L 554 103 Q 544 103 544 93 L 544 58 Q 544 48 554 48 Z" stroke-miterlimit="10"/></g><g transform="translate(-22,-14) scale(1,1)"><g><path fill="none" stroke="none"/><text fill="#000000" stroke="none" font-family="Arial" font-size="13px" font-style="normal" font-weight="bold" text-decoration="none" x="548.5" y="65.5">Filtros aplicados</text></g></g><g transform="translate(-22,-14) scale(1,1)"><path fill="none" stroke="#000000" d="M 426 175 L 550 104" stroke-miterlimit="10"/></g><g transform="translate(-22,-14) scale(1,1)"><path fill="none" stroke="#000000" d="M 543.272384919352 112.70282685836264 L 550 104 L 539.0890298682203 105.39668564230159" stroke-miterlimit="10"/></g><g transform="translate(-22,-14) scale(1,1)"><g><path fill="none" stroke="none"/><text fill="#000000" stroke="none" font-family="Arial" font-size="13px" font-style="normal" font-weight="normal" text-decoration="none" x="502.5" y="161.5">Aplica filtros</text></g></g><g transform="translate(-22,-14) scale(1,1)"><path fill="#C0C0C0" stroke="none" d="M 713 167 L 812 167 Q 822 167 822 177 L 822 220 Q 822 230 812 230 L 713 230 Q 703 230 703 220 L 703 177 Q 703 167 713 167 Z" opacity="0.2"/></g><g transform="translate(-22,-14) scale(1,1)"><path fill="#ffffff" stroke="none" d="M 706 160 L 805 160 Q 815 160 815 170 L 815 213 Q 815 223 805 223 L 706 223 Q 696 223 696 213 L 696 170 Q 696 160 706 160 Z"/></g><g transform="translate(-22,-14) scale(1,1)"><path fill="none" stroke="#000000" d="M 706 160 L 805 160 Q 815 160 815 170 L 815 213 Q 815 223 805 223 L 706 223 Q 696 223 696 213 L 696 170 Q 696 160 706 160 Z" stroke-miterlimit="10"/></g><g transform="translate(-22,-14) scale(1,1)"><g><path fill="none" stroke="none"/><text fill="#000000" stroke="none" font-family="Arial" font-size="13px" font-style="normal" font-weight="bold" text-decoration="none" x="707.10546875" y="177.5">Dedup aplicado</text></g></g><g transform="translate(-22,-14) scale(1,1)"><path fill="none" stroke="#000000" d="M 639 104 L 712 159" stroke-miterlimit="10"/></g><g transform="translate(-22,-14) scale(1,1)"><path fill="none" stroke="#000000" d="M 701.3501486782603 156.24669892223196 L 712 159 L 706.4162957745074 149.5225400490313" stroke-miterlimit="10"/></g><g transform="translate(-22,-14) scale(1,1)"><g><path fill="none" stroke="none"/><text fill="#000000" stroke="none" font-family="Arial" font-size="13px" font-style="normal" font-weight="normal" text-decoration="none" x="687.5" y="123.5">Aplica Dedup</text></g></g><g transform="translate(-22,-14) scale(1,1)"><path fill="#C0C0C0" stroke="none" d="M 921 55 L 1020 55 Q 1030 55 1030 65 L 1030 92 Q 1030 102 1020 102 L 921 102 Q 911 102 911 92 L 911 65 Q 911 55 921 55 Z" opacity="0.2"/></g><g transform="translate(-22,-14) scale(1,1)"><path fill="#ffffff" stroke="none" d="M 914 48 L 1013 48 Q 1023 48 1023 58 L 1023 85 Q 1023 95 1013 95 L 914 95 Q 904 95 904 85 L 904 58 Q 904 48 914 48 Z"/></g><g transform="translate(-22,-14) scale(1,1)"><path fill="none" stroke="#000000" d="M 914 48 L 1013 48 Q 1023 48 1023 58 L 1023 85 Q 1023 95 1013 95 L 914 95 Q 904 95 904 85 L 904 58 Q 904 48 914 48 Z" stroke-miterlimit="10"/></g><g transform="translate(-22,-14) scale(1,1)"><g><path fill="none" stroke="none"/><text fill="#000000" stroke="none" font-family="Arial" font-size="13px" font-style="normal" font-weight="bold" text-decoration="none" x="911.845947265625" y="65.5">Lista preenchida</text></g></g><g transform="translate(-22,-14) scale(1,1)"><path fill="none" stroke="#000000" d="M 810 159 L 920 96" stroke-miterlimit="10"/></g><g transform="translate(-22,-14) scale(1,1)"><path fill="none" stroke="#000000" d="M 913.2733459085013 104.70356965464879 L 920 96 L 909.0891841538734 97.39789040053664" stroke-miterlimit="10"/></g><g transform="translate(-22,-14) scale(1,1)"><g><path fill="none" stroke="none"/><text fill="#000000" stroke="none" font-family="Arial" font-size="13px" font-style="normal" font-weight="normal" text-decoration="none" x="862.5" y="153.5">Preenche lista</text></g></g><g transform="translate(-22,-14) scale(1,1)"><path fill="#C0C0C0" stroke="none" d="M 1135 187.5 C 1135 180.59644 1140.59644 175 1147.5 175 C 1154.40356 175 1160 180.59644 1160 187.5 C 1160 194.40356 1154.40356 200 1147.5 200 C 1140.59644 200 1135 194.40356 1135 187.5 Z" opacity="0.2"/></g><g transform="translate(-22,-14) scale(1,1)"><path fill="none" stroke="#000000" d="M 1128 180.5 C 1128 173.59644 1133.59644 168 1140.5 168 C 1147.40356 168 1153 173.59644 1153 180.5 C 1153 187.40356 1147.40356 193 1140.5 193 C 1133.59644 193 1128 187.40356 1128 180.5 Z" stroke-miterlimit="10"/></g><g transform="translate(-22,-14) scale(1,1)"><path fill="#000000" stroke="none" d="M 1133 180.5 C 1133 176.357864 1136.357864 173 1140.5 173 C 1144.642136 173 1148 176.357864 1148 180.5 C 1148 184.642136 1144.642136 188 1140.5 188 C 1136.357864 188 1133 184.642136 1133 180.5 Z"/></g><g transform="translate(-22,-14) scale(1,1)"><path fill="none" stroke="#000000" d="M 1004 96 L 1127 172" stroke-miterlimit="10"/></g><g transform="translate(-22,-14) scale(1,1)"><path fill="none" stroke="#000000" d="M 1116.1418495582498 170.2391567405593 L 1127 172 L 1120.5672324008517 163.07702398213752" stroke-miterlimit="10"/></g><g transform="translate(-22,-14) scale(1,1)"><g><path fill="none" stroke="none"/><text fill="#000000" stroke="none" font-family="Arial" font-size="13px" font-style="normal" font-weight="normal" text-decoration="none" x="1047.5" y="119.5">Retorna os links</text></g></g></g></svg>