<svg version="1.1" xmlns="http://www.w3.org/2000/svg" xmlns:xlink="http://www.w3.org/1999/xlink" width="948" height="276"><defs/><g><text fill="#eeeeee" stroke="none" font-family="Arial" font-size="24px" font-style="normal" font-weight="normal" text-decoration="none" x="0" y="0">UNREGISTERED</text><text fill="#eeeeee" stroke="none" font-family="Arial" font-size="24px" font-style="normal" font-weight="normal" text-decoration="none" x="0" y="30">UNREGISTERED</text><text fill="#eeeeee" stroke="none" font-family="Arial" font-size="24px" font-style="normal" font-weight="normal" text-decoration="none" x="0" y="60">UNREGISTERED</text><text fill="#eeeeee" stroke="none" font-family="Arial" font-size="24px" font-style="normal" font-weight="normal" text-decoration="none" x="0" y="90">UNREGISTERED</text><text fill="#eeeeee" stroke="none" font-family="Arial" font-size="24px" font-style="normal" font-weight="normal" text-decoration="none" x="0" y="120">UNREGISTERED</text><text fill="#eeeeee" stroke="none" font-family="Arial" font-size="24px" font-style="normal" font-weight="normal" text-decoration="none" x="0" y="150">UNREGISTERED</text><text fill="#eeeeee" stroke="none" font-family="Arial" font-size="24px" font-style="normal" font-weight="normal" text-decoration="none" x="0" y="180">UNREGISTERED</text><text fill="#eeeeee" stroke="none" font-family="Arial" font-size="24px" font-style="normal" font-weight="normal" text-decoration="none" x="0" y="210">UNREGISTERED</text><text fill="#eeeeee" stroke="none" font-family="Arial" font-size="24px" font-style="normal" font-weight="normal" text-decoration="none" x="0" y="240">UNREGISTERED</text><text fill="#eeeeee" stroke="none" font-family="Arial" font-size="24px" font-style="normal" font-weight="normal" text-decoration="none" x="0" y="270">UNREGISTERED</text><text fill="#eeeeee" stroke="none" font-family="Arial" font-size="24px" font-style="normal" font-weight="normal" text-decoration="none" x="200" y="0">UNREGISTERED</text><text fill="#eeeeee" stroke="none" font-family="Arial" font-size="24px" font-style="normal" font-weight="normal" text-decoration="none" x="200" y="30">UNREGISTERED</text><text fill="#eeeeee" stroke="none" font-family="Arial" font-size="24px" font-style="normal" font-weight="normal" text-decoration="none" x="200" y="60">UNREGISTERED</text><text fill="#eeeeee" stroke="none" font-family="Arial" font-size="24px" font-style="normal" font-weight="normal" text-decoration="none" x="200" y="90">UNREGISTERED</text><text fill="#eeeeee" stroke="none" font-family="Arial" font-size="24px" font-style="normal" font-weight="normal" text-decoration="none" x="200" y="120">UNREGISTERED</text><text fill="#eeeeee" stroke="none" font-family="Arial" font-size="24px" font-style="normal" font-weight="normal" text-decoration="none" x="200" y="150">UNREGISTERED</text><text fill="#eeeeee" stroke="none" font-family="Arial" font-size="24px" font-style="normal" font-weight="normal" text-decoration="none" x="200" y="180">UNREGISTERED</text><text fill="#eeeeee" stroke="none" font-family="Arial" font-size="24px" font-style="normal" font-weight="normal" text-decoration="none" x="200" y="210">UNREGISTERED</text><text fill="#eeeeee" stroke="none" font-family="Arial" font-size="24px" font-style="normal" font-weight="normal" text-decoration="none" x="200" y="240">UNREGISTERED</text><text fill="#eeeeee" stroke="none" font-family="Arial" font-size="24px" font-style="normal" font-weight="normal" text-decoration="none" x="200" y="270">UNREGISTERED</text><text fill="#eeeeee" stroke="none" font-family="Arial" font-size="24px" font-style="normal" font-weight="normal" text-decoration="none" x="400" y="0">UNREGISTERED</text><text fill="#eeeeee" stroke="none" font-family="Arial" font-size="24px" font-style="normal" font-weight="normal" text-decoration="none" x="400" y="30">UNREGISTERED</text><text fill="#eeeeee" stroke="none" font-family="Arial" font-size="24px" font-style="normal" font-weight="normal" text-decoration="none" x="400" y="60">UNREGISTERED</text><text fill="#eeeeee" stroke="none" font-family="Arial" font-size="24px" font-style="normal" font-weight="normal" text-decoration="none" x="400" y="90">UNREGISTERED</text><text fill="#eeeeee" stroke="none" font-family="Arial" font-size="24px" font-style="normal" font-weight="normal" text-decoration="none" x="400" y="120">UNREGISTERED</text><text fill="#eeeeee" stroke="none" font-family="Arial" font-size="24px" font-style="normal" font-weight="normal" text-decoration="none" x="400" y="150">UNREGISTERED</text><text fill="#eeeeee" stroke="none" font-family="Arial" font-size="24px" font-style="normal" font-weight="normal" text-decoration="none" x="400" y="180">UNREGISTERED</text><text fill="#eeeeee" stroke="none" font-family="Arial" font-size="24px" font-style="normal" font-weight="normal" text-decoration="none" x="400" y="210">UNREGISTERED</text><text fill="#eeeeee" stroke="none" font-family="Arial" font-size="24px" font-style="normal" font-weight="normal" text-decoration="none" x="400" y="240">UNREGISTERED</text><text fill="#eeeeee" stroke="none" font-family="Arial" font-size="24px" font-style="normal" font-weight="normal" text-decoration="none" x="400" y="270">UNREGISTERED</text><text fill="#eeeeee" stroke="none" font-family="Arial" font-size="24px" font-style="normal" font-weight="normal" text-decoration="none" x="600" y="0">UNREGISTERED</text><text fill="#eeeeee" stroke="none" font-family="Arial" font-size="24px" font-style="normal" font-weight="normal" text-decoration="none" x="600" y="30">UNREGISTERED</text><text fill="#eeeeee" stroke="none" font-family="Arial" font-size="24px" font-style="normal" font-weight="normal" text-decoration="none" x="600" y="60">UNREGISTERED</text><text fill="#eeeeee" stroke="none" font-family="Arial" font-size="24px" font-style="normal" font-weight="normal" text-decoration="none" x="600" y="90">UNREGISTERED</text><text fill="#eeeeee" stroke="none" font-family="Arial" font-size="24px" font-style="normal" font-weight="normal" text-decoration="none" x="600" y="120">UNREGISTERED</text><text fill="#eeeeee" stroke="none" font-family="Arial" font-size="24px" font-style="normal" font-weight="normal" text-decoration="none" x="600" y="150">UNREGISTERED</text><text fill="#eeeeee" stroke="none" font-family="Arial" font-size="24px" font-style="normal" font-weight="normal" text-decoration="none" x="600" y="180">UNREGISTERED</text><text fill="#eeeeee" stroke="none" font-family="Arial" font-size="24px" font-style="normal" font-weight="normal" text-decoration="none" x="600" y="210">UNREGISTERED</text><text fill="#eeeeee" stroke="none" font-family="Arial" font-size="24px" font-style="normal" font-weight="normal" text-decoration="none" x="600" y="240">UNREGISTERED</text><text fill="#eeeeee" stroke="none" font-family="Arial" font-size="24px" font-style="normal" font-weight="normal" text-decoration="none" x="600" y="270">UNREGISTERED</text><text fill="#eeeeee" stroke="none" font-family="Arial" font-size="24px" font-style="normal" font-weight="normal" text-decoration="none" x="800" y="0">UNREGISTERED</text><text fill="#eeeeee" stroke="none" font-family="Arial" font-size="24px" font-style="normal" font-weight="normal" text-decoration="none" x="800" y="30">UNREGISTERED</text><text fill="#eeeeee" stroke="none" font-family="Arial" font-size="24px" font-style="normal" font-weight="normal" text-decoration="none" x="800" y="60">UNREGISTERED</text><text fill="#eeeeee" stroke="none" font-family="Arial" font-size="24px" font-style="normal" font-weight="normal" text-decoration="none" x="800" y="90">UNREGISTERED</text><text fill="#eeeeee" stroke="none" font-family="Arial" font-size="24px" font-style="normal" font-weight="normal" text-decoration="none" x="800" y="120">UNREGISTERED</text><text fill="#eeeeee" stroke="none" font-family="Arial" font-size="24px" font-style="normal" font-weight="normal" text-decoration="none" x="800" y="150">UNREGISTERED</text><text fill="#eeeeee" stroke="none" font-family="Arial" font-size="24px" font-style="normal" font-weight="normal" text-decoration="none" x="800" y="180">UNREGISTERED</text><text fill="#eeeeee" stroke="none" font-family="Arial" font-size="24px" font-style="normal" font-weight="normal" text-decoration="none" x="800" y="210">UNREGISTERED</text><text fill="#eeeeee" stroke="none" font-family="Arial" font-size="24px" font-style="normal" font-weight="normal" text-decoration="none" x="800" y="240">UNREGISTERED</text><text fill="#eeeeee" stroke="none" font-family="Arial" font-size="24px" font-style="normal" font-weight="normal" text-decoration="none" x="800" y="270">UNREGISTERED</text><g transform="translate(-30,-14) scale(1,1)"><rect fill="#ffffff" stroke="none" x="40" y="24" width="928" height="256"/></g><g transform="translate(-30,-14) scale(1,1)"><path fill="none" stroke="#000000" d="M 40 24 L 968 24 L 968 280 L 40 280 L 40 24 Z Z" stroke-miterlimit="10"/></g><g transform="translate(-30,-14) scale(1,1)"><path fill="#C0C0C0" stroke="none" d="M 122 112.5 C 122 107.2532944 126.2532944 103 131.5 103 C 136.7467056 103 141 107.2532944 141 112.5 C 141 117.7467056 136.7467056 122 131.5 122 C 126.2532944 122 122 117.7467056 122 112.5 Z" opacity="0.2"/></g><g transform="translate(-30,-14) scale(1,1)"><path fill="#000000" stroke="none" d="M 115 105.5 C 115 100.2532944 119.2532944 96 124.5 96 C 129.7467056 96 134 100.2532944 134 105.5 C 134 110.7467056 129.7467056 115 124.5 115 C 119.2532944 115 115 110.7467056 115 105.5 Z"/></g><g transform="translate(-30,-14) scale(1,1)"><path fill="#C0C0C0" stroke="none" d="M 345 87 L 500 87 Q 510 87 510 97 L 510 124 Q 510 134 500 134 L 345 134 Q 335 134 335 124 L 335 97 Q 335 87 345 87 Z" opacity="0.2"/></g><g transform="translate(-30,-14) scale(1,1)"><path fill="#ffffff" stroke="none" d="M 338 80 L 493 80 Q 503 80 503 90 L 503 117 Q 503 127 493 127 L 338 127 Q 328 127 328 117 L 328 90 Q 328 80 338 80 Z"/></g><g transform="translate(-30,-14) scale(1,1)"><path fill="none" stroke="#000000" d="M 338 80 L 493 80 Q 503 80 503 90 L 503 117 Q 503 127 493 127 L 338 127 Q 328 127 328 117 L 328 90 Q 328 80 338 80 Z" stroke-miterlimit="10"/></g><g transform="translate(-30,-14) scale(1,1)"><g><path fill="none" stroke="none"/><text fill="#000000" stroke="none" font-family="Arial" font-size="13px" font-style="normal" font-weight="bold" text-decoration="none" x="370.34912109375" y="97.5">Preeche HTML</text></g></g><g transform="translate(-30,-14) scale(1,1)"><path fill="none" stroke="#000000" d="M 135 105 L 327 104" stroke-miterlimit="10"/></g><g transform="translate(-30,-14) scale(1,1)"><path fill="none" stroke="#000000" d="M 316.859387253952 108.26239054225312 L 327 104 L 316.8155387053901 99.8434692183753" stroke-miterlimit="10"/></g><g transform="translate(-30,-14) scale(1,1)"><g><path fill="none" stroke="none"/><text fill="#000000" stroke="none" font-family="Arial" font-size="13px" font-style="normal" font-weight="normal" text-decoration="none" x="182.5" y="93.5">recebe conteúdo</text></g></g><g transform="translate(-30,-14) scale(1,1)"><path fill="#C0C0C0" stroke="none" d="M 824 116.5 C 824 109.59644 829.59644 104 836.5 104 C 843.40356 104 849 109.59644 849 116.5 C 849 123.40356 843.40356 129 836.5 129 C 829.59644 129 824 123.40356 824 116.5 Z" opacity="0.2"/></g><g transform="translate(-30,-14) scale(1,1)"><path fill="none" stroke="#000000" d="M 817 109.5 C 817 102.59644 822.59644 97 829.5 97 C 836.40356 97 842 102.59644 842 109.5 C 842 116.40356 836.40356 122 829.5 122 C 822.59644 122 817 116.40356 817 109.5 Z" stroke-miterlimit="10"/></g><g transform="translate(-30,-14) scale(1,1)"><path fill="#000000" stroke="none" d="M 822 109.5 C 822 105.357864 825.357864 102 829.5 102 C 833.642136 102 837 105.357864 837 109.5 C 837 113.642136 833.642136 117 829.5 117 C 825.357864 117 822 113.642136 822 109.5 Z"/></g><g transform="translate(-30,-14) scale(1,1)"><path fill="none" stroke="#000000" d="M 504 104 L 816 109" stroke-miterlimit="10"/></g><g transform="translate(-30,-14) scale(1,1)"><path fill="none" stroke="#000000" d="M 805.7711783265811 113.04613484369919 L 816 109 L 805.9060814456027 104.62818021675247" stroke-miterlimit="10"/></g><g transform="translate(-30,-14) scale(1,1)"><g><path fill="none" stroke="none"/><text fill="#000000" stroke="none" font-family="Arial" font-size="13px" font-style="normal" font-weight="normal" text-decoration="none" x="617.5" y="95.5">Retorna HTML</text></g></g></g></svg>