<svg version="1.1" xmlns="http://www.w3.org/2000/svg" xmlns:xlink="http://www.w3.org/1999/xlink" width="806.39453125" height="340"><defs/><g><text fill="#eeeeee" stroke="none" font-family="Arial" font-size="24px" font-style="normal" font-weight="normal" text-decoration="none" x="0" y="0">UNREGISTERED</text><text fill="#eeeeee" stroke="none" font-family="Arial" font-size="24px" font-style="normal" font-weight="normal" text-decoration="none" x="0" y="30">UNREGISTERED</text><text fill="#eeeeee" stroke="none" font-family="Arial" font-size="24px" font-style="normal" font-weight="normal" text-decoration="none" x="0" y="60">UNREGISTERED</text><text fill="#eeeeee" stroke="none" font-family="Arial" font-size="24px" font-style="normal" font-weight="normal" text-decoration="none" x="0" y="90">UNREGISTERED</text><text fill="#eeeeee" stroke="none" font-family="Arial" font-size="24px" font-style="normal" font-weight="normal" text-decoration="none" x="0" y="120">UNREGISTERED</text><text fill="#eeeeee" stroke="none" font-family="Arial" font-size="24px" font-style="normal" font-weight="normal" text-decoration="none" x="0" y="150">UNREGISTERED</text><text fill="#eeeeee" stroke="none" font-family="Arial" font-size="24px" font-style="normal" font-weight="normal" text-decoration="none" x="0" y="180">UNREGISTERED</text><text fill="#eeeeee" stroke="none" font-family="Arial" font-size="24px" font-style="normal" font-weight="normal" text-decoration="none" x="0" y="210">UNREGISTERED</text><text fill="#eeeeee" stroke="none" font-family="Arial" font-size="24px" font-style="normal" font-weight="normal" text-decoration="none" x="0" y="240">UNREGISTERED</text><text fill="#eeeeee" stroke="none" font-family="Arial" font-size="24px" font-style="normal" font-weight="normal" text-decoration="none" x="0" y="270">UNREGISTERED</text><text fill="#eeeeee" stroke="none" font-family="Arial" font-size="24px" font-style="normal" font-weight="normal" text-decoration="none" x="0" y="300">UNREGISTERED</text><text fill="#eeeeee" stroke="none" font-family="Arial" font-size="24px" font-style="normal" font-weight="normal" text-decoration="none" x="0" y="330">UNREGISTERED</text><text fill="#eeeeee" stroke="none" font-family="Arial" font-size="24px" font-style="normal" font-weight="normal" text-decoration="none" x="200" y="0">UNREGISTERED</text><text fill="#eeeeee" stroke="none" font-family="Arial" font-size="24px" font-style="normal" font-weight="normal" text-decoration="none" x="200" y="30">UNREGISTERED</text><text fill="#eeeeee" stroke="none" font-family="Arial" font-size="24px" font-style="normal" font-weight="normal" text-decoration="none" x="200" y="60">UNREGISTERED</text><text fill="#eeeeee" stroke="none" font-family="Arial" font-size="24px" font-style="normal" font-weight="normal" text-decoration="none" x="200" y="90">UNREGISTERED</text><text fill="#eeeeee" stroke="none" font-family="Arial" font-size="24px" font-style="normal" font-weight="normal" text-decoration="none" x="200" y="120">UNREGISTERED</text><text fill="#eeeeee" stroke="none" font-family="Arial" font-size="24px" font-style="normal" font-weight="normal" text-decoration="none" x="200" y="150">UNREGISTERED</text><text fill="#eeeeee" stroke="none" font-family="Arial" font-size="24px" font-style="normal" font-weight="normal" text-decoration="none" x="200" y="180">UNREGISTERED</text><text fill="#eeeeee" stroke="none" font-family="Arial" font-size="24px" font-style="normal" font-weight="normal" text-decoration="none" x="200" y="210">UNREGISTERED</text><text fill="#eeeeee" stroke="none" font-family="Arial" font-size="24px" font-style="normal" font-weight="normal" text-decoration="none" x="200" y="240">UNREGISTERED</text><text fill="#eeeeee" stroke="none" font-family="Arial" font-size="24px" font-style="normal" font-weight="normal" text-decoration="none" x="200" y="270">UNREGISTERED</text><text fill="#eeeeee" stroke="none" font-family="Arial" font-size="24px" font-style="normal" font-weight="normal" text-decoration="none" x="200" y="300">UNREGISTERED</text><text fill="#eeeeee" stroke="none" font-family="Arial" font-size="24px" font-style="normal" font-weight="normal" text-decoration="none" x="200" y="330">UNREGISTERED</text><text fill="#eeeeee" stroke="none" font-family="Arial" font-size="24px" font-style="normal" font-weight="normal" text-decoration="none" x="400" y="0">UNREGISTERED</text><text fill="#eeeeee" stroke="none" font-family="Arial" font-size="24px" font-style="normal" font-weight="normal" text-decoration="none" x="400" y="30">UNREGISTERED</text><text fill="#eeeeee" stroke="none" font-family="Arial" font-size="24px" font-style="normal" font-weight="normal" text-decoration="none" x="400" y="60">UNREGISTERED</text><text fill="#eeeeee" stroke="none" font-family="Arial" font-size="24px" font-style="normal" font-weight="normal" text-decoration="none" x="400" y="90">UNREGISTERED</text><text fill="#eeeeee" stroke="none" font-family="Arial" font-size="24px" font-style="normal" font-weight="normal" text-decoration="none" x="400" y="120">UNREGISTERED</text><text fill="#eeeeee" stroke="none" font-family="Arial" font-size="24px" font-style="normal" font-weight="normal" text-decoration="none" x="400" y="150">UNREGISTERED</text><text fill="#eeeeee" stroke="none" font-family="Arial" font-size="24px" font-style="normal" font-weight="normal" text-decoration="none" x="400" y="180">UNREGISTERED</text><text fill="#eeeeee" stroke="none" font-family="Arial" font-size="24px" font-style="normal" font-weight="normal" text-decoration="none" x="400" y="210">UNREGISTERED</text><text fill="#eeeeee" stroke="none" font-family="Arial" font-size="24px" font-style="normal" font-weight="normal" text-decoration="none" x="400" y="240">UNREGISTERED</text><text fill="#eeeeee" stroke="none" font-family="Arial" font-size="24px" font-style="normal" font-weight="normal" text-decoration="none" x="400" y="270">UNREGISTERED</text><text fill="#eeeeee" stroke="none" font-family="Arial" font-size="24px" font-style="normal" font-weight="normal" text-decoration="none" x="400" y="300">UNREGISTERED</text><text fill="#eeeeee" stroke="none" font-family="Arial" font-size="24px" font-style="normal" font-weight="normal" text-decoration="none" x="400" y="330">UNREGISTERED</text><text fill="#eeeeee" stroke="none" font-family="Arial" font-size="24px" font-style="normal" font-weight="normal" text-decoration="none" x="600" y="0">UNREGISTERED</text><text fill="#eeeeee" stroke="none" font-family="Arial" font-size="24px" font-style="normal" font-weight="normal" text-decoration="none" x="600" y="30">UNREGISTERED</text><text fill="#eeeeee" stroke="none" font-family="Arial" font-size="24px" font-style="normal" font-weight="normal" text-decoration="none" x="600" y="60">UNREGISTERED</text><text fill="#eeeeee" stroke="none" font-family="Arial" font-size="24px" font-style="normal" font-weight="normal" text-decoration="none" x="600" y="90">UNREGISTERED</text><text fill="#eeeeee" stroke="none" font-family="Arial" font-size="24px" font-style="normal" font-weight="normal" text-decoration="none" x="600" y="120">UNREGISTERED</text><text fill="#eeeeee" stroke="none" font-family="Arial" font-size="24px" font-style="normal" font-weight="normal" text-decoration="none" x="600" y="150">UNREGISTERED</text><text fill="#eeeeee" stroke="none" font-family="Arial" font-size="24px" font-style="normal" font-weight="normal" text-decoration="none" x="600" y="180">UNREGISTERED</text><text fill="#eeeeee" stroke="none" font-family="Arial" font-size="24px" font-style="normal" font-weight="normal" text-decoration="none" x="600" y="210">UNREGISTERED</text><text fill="#eeeeee" stroke="none" font-family="Arial" font-size="24px" font-style="normal" font-weight="normal" text-decoration="none" x="600" y="240">UNREGISTERED</text><text fill="#eeeeee" stroke="none" font-family="Arial" font-size="24px" font-style="normal" font-weight="normal" text-decoration="none" x="600" y="270">UNREGISTERED</text><text fill="#eeeeee" stroke="none" font-family="Arial" font-size="24px" font-style="normal" font-weight="normal" text-decoration="none" x="600" y="300">UNREGISTERED</text><text fill="#eeeeee" stroke="none" font-family="Arial" font-size="24px" font-style="normal" font-weight="normal" text-decoration="none" x="600" y="330">UNREGISTERED</text><text fill="#eeeeee" stroke="none" font-family="Arial" font-size="24px" font-style="normal" font-weight="normal" text-decoration="none" x="800" y="0">UNREGISTERED</text><text fill="#eeeeee" stroke="none" font-family="Arial" font-size="24px" font-style="normal" font-weight="normal" text-decoration="none" x="800" y="30">UNREGISTERED</text><text fill="#eeeeee" stroke="none" font-family="Arial" font-size="24px" font-style="normal" font-weight="normal" text-decoration="none" x="800" y="60">UNREGISTERED</text><text fill="#eeeeee" stroke="none" font-family="Arial" font-size="24px" font-style="normal" font-weight="normal" text-decoration="none" x="800" y="90">UNREGISTERED</text><text fill="#eeeeee" stroke="none" font-family="Arial" font-size="24px" font-style="normal" font-weight="normal" text-decoration="none" x="800" y="120">UNREGISTERED</text><text fill="#eeeeee" stroke="none" font-family="Arial" font-size="24px" font-style="normal" font-weight="normal" text-decoration="none" x="800" y="150">UNREGISTERED</text><text fill="#eeeeee" stroke="none" font-family="Arial" font-size="24px" font-style="normal" font-weight="normal" text-decoration="none" x="800" y="180">UNREGISTERED</text><text fill="#eeeeee" stroke="none" font-family="Arial" font-size="24px" font-style="normal" font-weight="normal" text-decoration="none" x="800" y="210">UNREGISTERED</text><text fill="#eeeeee" stroke="none" font-family="Arial" font-size="24px" font-style="normal" font-weight="normal" text-decoration="none" x="800" y="240">UNREGISTERED</text><text fill="#eeeeee" stroke="none" font-family="Arial" font-size="24px" font-style="normal" font-weight="normal" text-decoration="none" x="800" y="270">UNREGISTERED</text><text fill="#eeeeee" stroke="none" font-family="Arial" font-size="24px" font-style="normal" font-weight="normal" text-decoration="none" x="800" y="300">UNREGISTERED</text><text fill="#eeeeee" stroke="none" font-family="Arial" font-size="24px" font-style="normal" font-weight="normal" text-decoration="none" x="800" y="330">UNREGISTERED</text><g transform="translate(-950,-686) scale(1,1)"><path fill="#ffffff" stroke="none" d="M 1676.5179928977273 705.6800000000001 C 1676.5179928977273 700.8861679360001 1680.4038352226728 697 1685.197265625 697 C 1689.9906960273272 697 1693.8765383522727 700.8861679360001 1693.8765383522727 705.6800000000001 C 1693.8765383522727 710.473832064 1689.9906960273272 714.36 1685.197265625 714.36 C 1680.4038352226728 714.36 1676.5179928977273 710.473832064 1676.5179928977273 705.6800000000001 Z"/></g><g transform="translate(-950,-686) scale(1,1)"><path fill="none" stroke="#000000" d="M 1676.5179928977273 705.6800000000001 C 1676.5179928977273 700.8861679360001 1680.4038352226728 697 1685.197265625 697 C 1689.9906960273272 697 1693.8765383522727 700.8861679360001 1693.8765383522727 705.6800000000001 C 1693.8765383522727 710.473832064 1689.9906960273272 714.36 1685.197265625 714.36 C 1680.4038352226728 714.36 1676.5179928977273 710.473832064 1676.5179928977273 705.6800000000001 Z" stroke-miterlimit="10"/></g><g transform="translate(-950,-686) scale(1,1)"><path fill="none" stroke="#000000" d="M 1685.197265625 714.36 L 1685.197265625 731.64" stroke-miterlimit="10"/></g><g transform="translate(-950,-686) scale(1,1)"><path fill="none" stroke="#000000" d="M 1676.0074474431817 720.84 L 1694.3870838068183 720.84" stroke-miterlimit="10"/></g><g transform="translate(-950,-686) scale(1,1)"><path fill="none" stroke="#000000" d="M 1685.197265625 731.64 L 1672.4336292613636 749" stroke-miterlimit="10"/></g><g transform="translate(-950,-686) scale(1,1)"><path fill="none" stroke="#000000" d="M 1685.197265625 731.64 L 1697.9609019886364 749" stroke-miterlimit="10"/></g><g transform="translate(-950,-686) scale(1,1)"><g><path fill="none" stroke="none"/><text fill="#000000" stroke="none" font-family="Arial" font-size="13px" font-style="normal" font-weight="bold" text-decoration="none" x="1628.5" y="767.5">ServidorConteudo</text></g></g><g transform="translate(-950,-686) scale(1,1)"><path fill="#ffffff" stroke="none" d="M 980.0211667258523 713.6800000000001 C 980.0211667258523 708.8861679360001 983.9070090507977 705 988.700439453125 705 C 993.4938698554523 705 997.3797121803977 708.8861679360001 997.3797121803977 713.6800000000001 C 997.3797121803977 718.473832064 993.4938698554523 722.36 988.700439453125 722.36 C 983.9070090507977 722.36 980.0211667258523 718.473832064 980.0211667258523 713.6800000000001 Z"/></g><g transform="translate(-950,-686) scale(1,1)"><path fill="none" stroke="#000000" d="M 980.0211667258523 713.6800000000001 C 980.0211667258523 708.8861679360001 983.9070090507977 705 988.700439453125 705 C 993.4938698554523 705 997.3797121803977 708.8861679360001 997.3797121803977 713.6800000000001 C 997.3797121803977 718.473832064 993.4938698554523 722.36 988.700439453125 722.36 C 983.9070090507977 722.36 980.0211667258523 718.473832064 980.0211667258523 713.6800000000001 Z" stroke-miterlimit="10"/></g><g transform="translate(-950,-686) scale(1,1)"><path fill="none" stroke="#000000" d="M 988.700439453125 722.36 L 988.700439453125 739.64" stroke-miterlimit="10"/></g><g transform="translate(-950,-686) scale(1,1)"><path fill="none" stroke="#000000" d="M 979.5106212713068 728.84 L 997.8902576349432 728.84" stroke-miterlimit="10"/></g><g transform="translate(-950,-686) scale(1,1)"><path fill="none" stroke="#000000" d="M 988.700439453125 739.64 L 975.9368030894886 757" stroke-miterlimit="10"/></g><g transform="translate(-950,-686) scale(1,1)"><path fill="none" stroke="#000000" d="M 988.700439453125 739.64 L 1001.4640758167614 757" stroke-miterlimit="10"/></g><g transform="translate(-950,-686) scale(1,1)"><g><path fill="none" stroke="none"/><text fill="#000000" stroke="none" font-family="Arial" font-size="13px" font-style="normal" font-weight="bold" text-decoration="none" x="964.5" y="775.5">Usuario</text></g></g><g transform="translate(-950,-686) scale(1,1)"><path fill="#C0C0C0" stroke="none" d="M 1087 744 C 1087 734.6111584 1127.9659408 727 1178.5 727 C 1229.0340592 727 1270 734.6111584 1270 744 C 1270 753.3888416 1229.0340592 761 1178.5 761 C 1127.9659408 761 1087 753.3888416 1087 744 Z" opacity="0.2"/></g><g transform="translate(-950,-686) scale(1,1)"><path fill="#ffffff" stroke="none" d="M 1080 737 C 1080 727.6111584 1120.9659408 720 1171.5 720 C 1222.0340592 720 1263 727.6111584 1263 737 C 1263 746.3888416 1222.0340592 754 1171.5 754 C 1120.9659408 754 1080 746.3888416 1080 737 Z"/></g><g transform="translate(-950,-686) scale(1,1)"><path fill="none" stroke="#000000" d="M 1080 737 C 1080 727.6111584 1120.9659408 720 1171.5 720 C 1222.0340592 720 1263 727.6111584 1263 737 C 1263 746.3888416 1222.0340592 754 1171.5 754 C 1120.9659408 754 1080 746.3888416 1080 737 Z" stroke-miterlimit="10"/></g><g transform="translate(-950,-686) scale(1,1)"><g><path fill="none" stroke="none"/><text fill="#000000" stroke="none" font-family="Arial" font-size="13px" font-style="normal" font-weight="bold" text-decoration="none" x="1118.408203125" y="742">Buscar conteudo</text></g></g><g transform="translate(-950,-686) scale(1,1)"><path fill="none" stroke="#000000" d="M 1018 742 L 1079 740" stroke-miterlimit="10"/></g><g transform="translate(-950,-686) scale(1,1)"><path fill="#C0C0C0" stroke="none" d="M 1335 746.5 C 1335 735.7304464 1373.7273648 727 1421.5 727 C 1469.2726352 727 1508 735.7304464 1508 746.5 C 1508 757.2695536 1469.2726352 766 1421.5 766 C 1373.7273648 766 1335 757.2695536 1335 746.5 Z" opacity="0.2"/></g><g transform="translate(-950,-686) scale(1,1)"><path fill="#ffffff" stroke="none" d="M 1328 739.5 C 1328 728.7304464 1366.7273648 720 1414.5 720 C 1462.2726352 720 1501 728.7304464 1501 739.5 C 1501 750.2695536 1462.2726352 759 1414.5 759 C 1366.7273648 759 1328 750.2695536 1328 739.5 Z"/></g><g transform="translate(-950,-686) scale(1,1)"><path fill="none" stroke="#000000" d="M 1328 739.5 C 1328 728.7304464 1366.7273648 720 1414.5 720 C 1462.2726352 720 1501 728.7304464 1501 739.5 C 1501 750.2695536 1462.2726352 759 1414.5 759 C 1366.7273648 759 1328 750.2695536 1328 739.5 Z" stroke-miterlimit="10"/></g><g transform="translate(-950,-686) scale(1,1)"><g><path fill="none" stroke="none"/><text fill="#000000" stroke="none" font-family="Arial" font-size="13px" font-style="normal" font-weight="bold" text-decoration="none" x="1357.799560546875" y="744.5">Solicitar conteúdo</text></g></g><g transform="translate(-950,-686) scale(1,1)"><path fill="none" stroke="#000000" d="M 1502 738 L 1623 736" stroke-miterlimit="10"/></g><g transform="translate(-950,-686) scale(1,1)"><rect fill="#ffffff" stroke="none" x="1160" y="896" width="288" height="120"/></g><g transform="translate(-950,-686) scale(1,1)"><path fill="none" stroke="#000000" d="M 1160 896 L 1448 896 L 1448 1016 L 1160 1016 L 1160 896 Z Z" stroke-miterlimit="10"/></g><g transform="translate(-950,-686) scale(1,1)"><g><path fill="none" stroke="none"/><text fill="#000000" stroke="none" font-family="Arial" font-size="13px" font-style="normal" font-weight="normal" text-decoration="none" x="1275.10546875" y="910">Membros:</text></g></g><g transform="translate(-950,-686) scale(1,1)"><g><path fill="none" stroke="none"/><text fill="#000000" stroke="none" font-family="Arial" font-size="13px" font-style="normal" font-weight="normal" text-decoration="none" x="1206.446044921875" y="925">Lucas Moraes - RA: 22.220.004-0</text></g></g><g transform="translate(-950,-686) scale(1,1)"><g><path fill="none" stroke="none"/><text fill="#000000" stroke="none" font-family="Arial" font-size="13px" font-style="normal" font-weight="normal" text-decoration="none" x="1173.3271484375" y="940">Vinicius Moura Rodrigues - RA: 22.120.057-9</text></g></g><g transform="translate(-950,-686) scale(1,1)"><g><path fill="none" stroke="none"/><text fill="#000000" stroke="none" font-family="Arial" font-size="13px" font-style="normal" font-weight="normal" text-decoration="none" x="1218.12255859375" y="955">Ian Rocha - RA: 22.119.051-5</text></g></g><g transform="translate(-950,-686) scale(1,1)"><g><path fill="none" stroke="none"/><text fill="#000000" stroke="none" font-family="Arial" font-size="13px" font-style="normal" font-weight="normal" text-decoration="none" x="1181.40771484375" y="970">Lucas Gomes Trevizoli - RA: 22.120.059-5</text></g></g><g transform="translate(-950,-686) scale(1,1)"><g><path fill="none" stroke="none"/><text fill="#000000" stroke="none" font-family="Arial" font-size="13px" font-style="normal" font-weight="normal" text-decoration="none" x="1192.836669921875" y="985">Gabriel Pasquarelli - RA: 22.220.011-5</text></g></g><g transform="translate(-950,-686) scale(1,1)"><g><path fill="none" stroke="none"/><text fill="#000000" stroke="none" font-family="Arial" font-size="13px" font-style="normal" font-weight="normal" text-decoration="none" x="1211.14013671875" y="1000">Lucas Kraus - RA: 22.120.061-1</text></g></g></g></svg>