<svg version="1.1" xmlns="http://www.w3.org/2000/svg" xmlns:xlink="http://www.w3.org/1999/xlink" width="1284" height="668"><defs/><g><text fill="#eeeeee" stroke="none" font-family="Arial" font-size="24px" font-style="normal" font-weight="normal" text-decoration="none" x="0" y="0">UNREGISTERED</text><text fill="#eeeeee" stroke="none" font-family="Arial" font-size="24px" font-style="normal" font-weight="normal" text-decoration="none" x="0" y="30">UNREGISTERED</text><text fill="#eeeeee" stroke="none" font-family="Arial" font-size="24px" font-style="normal" font-weight="normal" text-decoration="none" x="0" y="60">UNREGISTERED</text><text fill="#eeeeee" stroke="none" font-family="Arial" font-size="24px" font-style="normal" font-weight="normal" text-decoration="none" x="0" y="90">UNREGISTERED</text><text fill="#eeeeee" stroke="none" font-family="Arial" font-size="24px" font-style="normal" font-weight="normal" text-decoration="none" x="0" y="120">UNREGISTERED</text><text fill="#eeeeee" stroke="none" font-family="Arial" font-size="24px" font-style="normal" font-weight="normal" text-decoration="none" x="0" y="150">UNREGISTERED</text><text fill="#eeeeee" stroke="none" font-family="Arial" font-size="24px" font-style="normal" font-weight="normal" text-decoration="none" x="0" y="180">UNREGISTERED</text><text fill="#eeeeee" stroke="none" font-family="Arial" font-size="24px" font-style="normal" font-weight="normal" text-decoration="none" x="0" y="210">UNREGISTERED</text><text fill="#eeeeee" stroke="none" font-family="Arial" font-size="24px" font-style="normal" font-weight="normal" text-decoration="none" x="0" y="240">UNREGISTERED</text><text fill="#eeeeee" stroke="none" font-family="Arial" font-size="24px" font-style="normal" font-weight="normal" text-decoration="none" x="0" y="270">UNREGISTERED</text><text fill="#eeeeee" stroke="none" font-family="Arial" font-size="24px" font-style="normal" font-weight="normal" text-decoration="none" x="0" y="300">UNREGISTERED</text><text fill="#eeeeee" stroke="none" font-family="Arial" font-size="24px" font-style="normal" font-weight="normal" text-decoration="none" x="0" y="330">UNREGISTERED</text><text fill="#eeeeee" stroke="none" font-family="Arial" font-size="24px" font-style="normal" font-weight="normal" text-decoration="none" x="0" y="360">UNREGISTERED</text><text fill="#eeeeee" stroke="none" font-family="Arial" font-size="24px" font-style="normal" font-weight="normal" text-decoration="none" x="0" y="390">UNREGISTERED</text><text fill="#eeeeee" stroke="none" font-family="Arial" font-size="24px" font-style="normal" font-weight="normal" text-decoration="none" x="0" y="420">UNREGISTERED</text><text fill="#eeeeee" stroke="none" font-family="Arial" font-size="24px" font-style="normal" font-weight="normal" text-decoration="none" x="0" y="450">UNREGISTERED</text><text fill="#eeeeee" stroke="none" font-family="Arial" font-size="24px" font-style="normal" font-weight="normal" text-decoration="none" x="0" y="480">UNREGISTERED</text><text fill="#eeeeee" stroke="none" font-family="Arial" font-size="24px" font-style="normal" font-weight="normal" text-decoration="none" x="0" y="510">UNREGISTERED</text><text fill="#eeeeee" stroke="none" font-family="Arial" font-size="24px" font-style="normal" font-weight="normal" text-decoration="none" x="0" y="540">UNREGISTERED</text><text fill="#eeeeee" stroke="none" font-family="Arial" font-size="24px" font-style="normal" font-weight="normal" text-decoration="none" x="0" y="570">UNREGISTERED</text><text fill="#eeeeee" stroke="none" font-family="Arial" font-size="24px" font-style="normal" font-weight="normal" text-decoration="none" x="0" y="600">UNREGISTERED</text><text fill="#eeeeee" stroke="none" font-family="Arial" font-size="24px" font-style="normal" font-weight="normal" text-decoration="none" x="0" y="630">UNREGISTERED</text><text fill="#eeeeee" stroke="none" font-family="Arial" font-size="24px" font-style="normal" font-weight="normal" text-decoration="none" x="0" y="660">UNREGISTERED</text><text fill="#eeeeee" stroke="none" font-family="Arial" font-size="24px" font-style="normal" font-weight="normal" text-decoration="none" x="200" y="0">UNREGISTERED</text><text fill="#eeeeee" stroke="none" font-family="Arial" font-size="24px" font-style="normal" font-weight="normal" text-decoration="none" x="200" y="30">UNREGISTERED</text><text fill="#eeeeee" stroke="none" font-family="Arial" font-size="24px" font-style="normal" font-weight="normal" text-decoration="none" x="200" y="60">UNREGISTERED</text><text fill="#eeeeee" stroke="none" font-family="Arial" font-size="24px" font-style="normal" font-weight="normal" text-decoration="none" x="200" y="90">UNREGISTERED</text><text fill="#eeeeee" stroke="none" font-family="Arial" font-size="24px" font-style="normal" font-weight="normal" text-decoration="none" x="200" y="120">UNREGISTERED</text><text fill="#eeeeee" stroke="none" font-family="Arial" font-size="24px" font-style="normal" font-weight="normal" text-decoration="none" x="200" y="150">UNREGISTERED</text><text fill="#eeeeee" stroke="none" font-family="Arial" font-size="24px" font-style="normal" font-weight="normal" text-decoration="none" x="200" y="180">UNREGISTERED</text><text fill="#eeeeee" stroke="none" font-family="Arial" font-size="24px" font-style="normal" font-weight="normal" text-decoration="none" x="200" y="210">UNREGISTERED</text><text fill="#eeeeee" stroke="none" font-family="Arial" font-size="24px" font-style="normal" font-weight="normal" text-decoration="none" x="200" y="240">UNREGISTERED</text><text fill="#eeeeee" stroke="none" font-family="Arial" font-size="24px" font-style="normal" font-weight="normal" text-decoration="none" x="200" y="270">UNREGISTERED</text><text fill="#eeeeee" stroke="none" font-family="Arial" font-size="24px" font-style="normal" font-weight="normal" text-decoration="none" x="200" y="300">UNREGISTERED</text><text fill="#eeeeee" stroke="none" font-family="Arial" font-size="24px" font-style="normal" font-weight="normal" text-decoration="none" x="200" y="330">UNREGISTERED</text><text fill="#eeeeee" stroke="none" font-family="Arial" font-size="24px" font-style="normal" font-weight="normal" text-decoration="none" x="200" y="360">UNREGISTERED</text><text fill="#eeeeee" stroke="none" font-family="Arial" font-size="24px" font-style="normal" font-weight="normal" text-decoration="none" x="200" y="390">UNREGISTERED</text><text fill="#eeeeee" stroke="none" font-family="Arial" font-size="24px" font-style="normal" font-weight="normal" text-decoration="none" x="200" y="420">UNREGISTERED</text><text fill="#eeeeee" stroke="none" font-family="Arial" font-size="24px" font-style="normal" font-weight="normal" text-decoration="none" x="200" y="450">UNREGISTERED</text><text fill="#eeeeee" stroke="none" font-family="Arial" font-size="24px" font-style="normal" font-weight="normal" text-decoration="none" x="200" y="480">UNREGISTERED</text><text fill="#eeeeee" stroke="none" font-family="Arial" font-size="24px" font-style="normal" font-weight="normal" text-decoration="none" x="200" y="510">UNREGISTERED</text><text fill="#eeeeee" stroke="none" font-family="Arial" font-size="24px" font-style="normal" font-weight="normal" text-decoration="none" x="200" y="540">UNREGISTERED</text><text fill="#eeeeee" stroke="none" font-family="Arial" font-size="24px" font-style="normal" font-weight="normal" text-decoration="none" x="200" y="570">UNREGISTERED</text><text fill="#eeeeee" stroke="none" font-family="Arial" font-size="24px" font-style="normal" font-weight="normal" text-decoration="none" x="200" y="600">UNREGISTERED</text><text fill="#eeeeee" stroke="none" font-family="Arial" font-size="24px" font-style="normal" font-weight="normal" text-decoration="none" x="200" y="630">UNREGISTERED</text><text fill="#eeeeee" stroke="none" font-family="Arial" font-size="24px" font-style="normal" font-weight="normal" text-decoration="none" x="200" y="660">UNREGISTERED</text><text fill="#eeeeee" stroke="none" font-family="Arial" font-size="24px" font-style="normal" font-weight="normal" text-decoration="none" x="400" y="0">UNREGISTERED</text><text fill="#eeeeee" stroke="none" font-family="Arial" font-size="24px" font-style="normal" font-weight="normal" text-decoration="none" x="400" y="30">UNREGISTERED</text><text fill="#eeeeee" stroke="none" font-family="Arial" font-size="24px" font-style="normal" font-weight="normal" text-decoration="none" x="400" y="60">UNREGISTERED</text><text fill="#eeeeee" stroke="none" font-family="Arial" font-size="24px" font-style="normal" font-weight="normal" text-decoration="none" x="400" y="90">UNREGISTERED</text><text fill="#eeeeee" stroke="none" font-family="Arial" font-size="24px" font-style="normal" font-weight="normal" text-decoration="none" x="400" y="120">UNREGISTERED</text><text fill="#eeeeee" stroke="none" font-family="Arial" font-size="24px" font-style="normal" font-weight="normal" text-decoration="none" x="400" y="150">UNREGISTERED</text><text fill="#eeeeee" stroke="none" font-family="Arial" font-size="24px" font-style="normal" font-weight="normal" text-decoration="none" x="400" y="180">UNREGISTERED</text><text fill="#eeeeee" stroke="none" font-family="Arial" font-size="24px" font-style="normal" font-weight="normal" text-decoration="none" x="400" y="210">UNREGISTERED</text><text fill="#eeeeee" stroke="none" font-family="Arial" font-size="24px" font-style="normal" font-weight="normal" text-decoration="none" x="400" y="240">UNREGISTERED</text><text fill="#eeeeee" stroke="none" font-family="Arial" font-size="24px" font-style="normal" font-weight="normal" text-decoration="none" x="400" y="270">UNREGISTERED</text><text fill="#eeeeee" stroke="none" font-family="Arial" font-size="24px" font-style="normal" font-weight="normal" text-decoration="none" x="400" y="300">UNREGISTERED</text><text fill="#eeeeee" stroke="none" font-family="Arial" font-size="24px" font-style="normal" font-weight="normal" text-decoration="none" x="400" y="330">UNREGISTERED</text><text fill="#eeeeee" stroke="none" font-family="Arial" font-size="24px" font-style="normal" font-weight="normal" text-decoration="none" x="400" y="360">UNREGISTERED</text><text fill="#eeeeee" stroke="none" font-family="Arial" font-size="24px" font-style="normal" font-weight="normal" text-decoration="none" x="400" y="390">UNREGISTERED</text><text fill="#eeeeee" stroke="none" font-family="Arial" font-size="24px" font-style="normal" font-weight="normal" text-decoration="none" x="400" y="420">UNREGISTERED</text><text fill="#eeeeee" stroke="none" font-family="Arial" font-size="24px" font-style="normal" font-weight="normal" text-decoration="none" x="400" y="450">UNREGISTERED</text><text fill="#eeeeee" stroke="none" font-family="Arial" font-size="24px" font-style="normal" font-weight="normal" text-decoration="none" x="400" y="480">UNREGISTERED</text><text fill="#eeeeee" stroke="none" font-family="Arial" font-size="24px" font-style="normal" font-weight="normal" text-decoration="none" x="400" y="510">UNREGISTERED</text><text fill="#eeeeee" stroke="none" font-family="Arial" font-size="24px" font-style="normal" font-weight="normal" text-decoration="none" x="400" y="540">UNREGISTERED</text><text fill="#eeeeee" stroke="none" font-family="Arial" font-size="24px" font-style="normal" font-weight="normal" text-decoration="none" x="400" y="570">UNREGISTERED</text><text fill="#eeeeee" stroke="none" font-family="Arial" font-size="24px" font-style="normal" font-weight="normal" text-decoration="none" x="400" y="600">UNREGISTERED</text><text fill="#eeeeee" stroke="none" font-family="Arial" font-size="24px" font-style="normal" font-weight="normal" text-decoration="none" x="400" y="630">UNREGISTERED</text><text fill="#eeeeee" stroke="none" font-family="Arial" font-size="24px" font-style="normal" font-weight="normal" text-decoration="none" x="400" y="660">UNREGISTERED</text><text fill="#eeeeee" stroke="none" font-family="Arial" font-size="24px" font-style="normal" font-weight="normal" text-decoration="none" x="600" y="0">UNREGISTERED</text><text fill="#eeeeee" stroke="none" font-family="Arial" font-size="24px" font-style="normal" font-weight="normal" text-decoration="none" x="600" y="30">UNREGISTERED</text><text fill="#eeeeee" stroke="none" font-family="Arial" font-size="24px" font-style="normal" font-weight="normal" text-decoration="none" x="600" y="60">UNREGISTERED</text><text fill="#eeeeee" stroke="none" font-family="Arial" font-size="24px" font-style="normal" font-weight="normal" text-decoration="none" x="600" y="90">UNREGISTERED</text><text fill="#eeeeee" stroke="none" font-family="Arial" font-size="24px" font-style="normal" font-weight="normal" text-decoration="none" x="600" y="120">UNREGISTERED</text><text fill="#eeeeee" stroke="none" font-family="Arial" font-size="24px" font-style="normal" font-weight="normal" text-decoration="none" x="600" y="150">UNREGISTERED</text><text fill="#eeeeee" stroke="none" font-family="Arial" font-size="24px" font-style="normal" font-weight="normal" text-decoration="none" x="600" y="180">UNREGISTERED</text><text fill="#eeeeee" stroke="none" font-family="Arial" font-size="24px" font-style="normal" font-weight="normal" text-decoration="none" x="600" y="210">UNREGISTERED</text><text fill="#eeeeee" stroke="none" font-family="Arial" font-size="24px" font-style="normal" font-weight="normal" text-decoration="none" x="600" y="240">UNREGISTERED</text><text fill="#eeeeee" stroke="none" font-family="Arial" font-size="24px" font-style="normal" font-weight="normal" text-decoration="none" x="600" y="270">UNREGISTERED</text><text fill="#eeeeee" stroke="none" font-family="Arial" font-size="24px" font-style="normal" font-weight="normal" text-decoration="none" x="600" y="300">UNREGISTERED</text><text fill="#eeeeee" stroke="none" font-family="Arial" font-size="24px" font-style="normal" font-weight="normal" text-decoration="none" x="600" y="330">UNREGISTERED</text><text fill="#eeeeee" stroke="none" font-family="Arial" font-size="24px" font-style="normal" font-weight="normal" text-decoration="none" x="600" y="360">UNREGISTERED</text><text fill="#eeeeee" stroke="none" font-family="Arial" font-size="24px" font-style="normal" font-weight="normal" text-decoration="none" x="600" y="390">UNREGISTERED</text><text fill="#eeeeee" stroke="none" font-family="Arial" font-size="24px" font-style="normal" font-weight="normal" text-decoration="none" x="600" y="420">UNREGISTERED</text><text fill="#eeeeee" stroke="none" font-family="Arial" font-size="24px" font-style="normal" font-weight="normal" text-decoration="none" x="600" y="450">UNREGISTERED</text><text fill="#eeeeee" stroke="none" font-family="Arial" font-size="24px" font-style="normal" font-weight="normal" text-decoration="none" x="600" y="480">UNREGISTERED</text><text fill="#eeeeee" stroke="none" font-family="Arial" font-size="24px" font-style="normal" font-weight="normal" text-decoration="none" x="600" y="510">UNREGISTERED</text><text fill="#eeeeee" stroke="none" font-family="Arial" font-size="24px" font-style="normal" font-weight="normal" text-decoration="none" x="600" y="540">UNREGISTERED</text><text fill="#eeeeee" stroke="none" font-family="Arial" font-size="24px" font-style="normal" font-weight="normal" text-decoration="none" x="600" y="570">UNREGISTERED</text><text fill="#eeeeee" stroke="none" font-family="Arial" font-size="24px" font-style="normal" font-weight="normal" text-decoration="none" x="600" y="600">UNREGISTERED</text><text fill="#eeeeee" stroke="none" font-family="Arial" font-size="24px" font-style="normal" font-weight="normal" text-decoration="none" x="600" y="630">UNREGISTERED</text><text fill="#eeeeee" stroke="none" font-family="Arial" font-size="24px" font-style="normal" font-weight="normal" text-decoration="none" x="600" y="660">UNREGISTERED</text><text fill="#eeeeee" stroke="none" font-family="Arial" font-size="24px" font-style="normal" font-weight="normal" text-decoration="none" x="800" y="0">UNREGISTERED</text><text fill="#eeeeee" stroke="none" font-family="Arial" font-size="24px" font-style="normal" font-weight="normal" text-decoration="none" x="800" y="30">UNREGISTERED</text><text fill="#eeeeee" stroke="none" font-family="Arial" font-size="24px" font-style="normal" font-weight="normal" text-decoration="none" x="800" y="60">UNREGISTERED</text><text fill="#eeeeee" stroke="none" font-family="Arial" font-size="24px" font-style="normal" font-weight="normal" text-decoration="none" x="800" y="90">UNREGISTERED</text><text fill="#eeeeee" stroke="none" font-family="Arial" font-size="24px" font-style="normal" font-weight="normal" text-decoration="none" x="800" y="120">UNREGISTERED</text><text fill="#eeeeee" stroke="none" font-family="Arial" font-size="24px" font-style="normal" font-weight="normal" text-decoration="none" x="800" y="150">UNREGISTERED</text><text fill="#eeeeee" stroke="none" font-family="Arial" font-size="24px" font-style="normal" font-weight="normal" text-decoration="none" x="800" y="180">UNREGISTERED</text><text fill="#eeeeee" stroke="none" font-family="Arial" font-size="24px" font-style="normal" font-weight="normal" text-decoration="none" x="800" y="210">UNREGISTERED</text><text fill="#eeeeee" stroke="none" font-family="Arial" font-size="24px" font-style="normal" font-weight="normal" text-decoration="none" x="800" y="240">UNREGISTERED</text><text fill="#eeeeee" stroke="none" font-family="Arial" font-size="24px" font-style="normal" font-weight="normal" text-decoration="none" x="800" y="270">UNREGISTERED</text><text fill="#eeeeee" stroke="none" font-family="Arial" font-size="24px" font-style="normal" font-weight="normal" text-decoration="none" x="800" y="300">UNREGISTERED</text><text fill="#eeeeee" stroke="none" font-family="Arial" font-size="24px" font-style="normal" font-weight="normal" text-decoration="none" x="800" y="330">UNREGISTERED</text><text fill="#eeeeee" stroke="none" font-family="Arial" font-size="24px" font-style="normal" font-weight="normal" text-decoration="none" x="800" y="360">UNREGISTERED</text><text fill="#eeeeee" stroke="none" font-family="Arial" font-size="24px" font-style="normal" font-weight="normal" text-decoration="none" x="800" y="390">UNREGISTERED</text><text fill="#eeeeee" stroke="none" font-family="Arial" font-size="24px" font-style="normal" font-weight="normal" text-decoration="none" x="800" y="420">UNREGISTERED</text><text fill="#eeeeee" stroke="none" font-family="Arial" font-size="24px" font-style="normal" font-weight="normal" text-decoration="none" x="800" y="450">UNREGISTERED</text><text fill="#eeeeee" stroke="none" font-family="Arial" font-size="24px" font-style="normal" font-weight="normal" text-decoration="none" x="800" y="480">UNREGISTERED</text><text fill="#eeeeee" stroke="none" font-family="Arial" font-size="24px" font-style="normal" font-weight="normal" text-decoration="none" x="800" y="510">UNREGISTERED</text><text fill="#eeeeee" stroke="none" font-family="Arial" font-size="24px" font-style="normal" font-weight="normal" text-decoration="none" x="800" y="540">UNREGISTERED</text><text fill="#eeeeee" stroke="none" font-family="Arial" font-size="24px" font-style="normal" font-weight="normal" text-decoration="none" x="800" y="570">UNREGISTERED</text><text fill="#eeeeee" stroke="none" font-family="Arial" font-size="24px" font-style="normal" font-weight="normal" text-decoration="none" x="800" y="600">UNREGISTERED</text><text fill="#eeeeee" stroke="none" font-family="Arial" font-size="24px" font-style="normal" font-weight="normal" text-decoration="none" x="800" y="630">UNREGISTERED</text><text fill="#eeeeee" stroke="none" font-family="Arial" font-size="24px" font-style="normal" font-weight="normal" text-decoration="none" x="800" y="660">UNREGISTERED</text><text fill="#eeeeee" stroke="none" font-family="Arial" font-size="24px" font-style="normal" font-weight="normal" text-decoration="none" x="1000" y="0">UNREGISTERED</text><text fill="#eeeeee" stroke="none" font-family="Arial" font-size="24px" font-style="normal" font-weight="normal" text-decoration="none" x="1000" y="30">UNREGISTERED</text><text fill="#eeeeee" stroke="none" font-family="Arial" font-size="24px" font-style="normal" font-weight="normal" text-decoration="none" x="1000" y="60">UNREGISTERED</text><text fill="#eeeeee" stroke="none" font-family="Arial" font-size="24px" font-style="normal" font-weight="normal" text-decoration="none" x="1000" y="90">UNREGISTERED</text><text fill="#eeeeee" stroke="none" font-family="Arial" font-size="24px" font-style="normal" font-weight="normal" text-decoration="none" x="1000" y="120">UNREGISTERED</text><text fill="#eeeeee" stroke="none" font-family="Arial" font-size="24px" font-style="normal" font-weight="normal" text-decoration="none" x="1000" y="150">UNREGISTERED</text><text fill="#eeeeee" stroke="none" font-family="Arial" font-size="24px" font-style="normal" font-weight="normal" text-decoration="none" x="1000" y="180">UNREGISTERED</text><text fill="#eeeeee" stroke="none" font-family="Arial" font-size="24px" font-style="normal" font-weight="normal" text-decoration="none" x="1000" y="210">UNREGISTERED</text><text fill="#eeeeee" stroke="none" font-family="Arial" font-size="24px" font-style="normal" font-weight="normal" text-decoration="none" x="1000" y="240">UNREGISTERED</text><text fill="#eeeeee" stroke="none" font-family="Arial" font-size="24px" font-style="normal" font-weight="normal" text-decoration="none" x="1000" y="270">UNREGISTERED</text><text fill="#eeeeee" stroke="none" font-family="Arial" font-size="24px" font-style="normal" font-weight="normal" text-decoration="none" x="1000" y="300">UNREGISTERED</text><text fill="#eeeeee" stroke="none" font-family="Arial" font-size="24px" font-style="normal" font-weight="normal" text-decoration="none" x="1000" y="330">UNREGISTERED</text><text fill="#eeeeee" stroke="none" font-family="Arial" font-size="24px" font-style="normal" font-weight="normal" text-decoration="none" x="1000" y="360">UNREGISTERED</text><text fill="#eeeeee" stroke="none" font-family="Arial" font-size="24px" font-style="normal" font-weight="normal" text-decoration="none" x="1000" y="390">UNREGISTERED</text><text fill="#eeeeee" stroke="none" font-family="Arial" font-size="24px" font-style="normal" font-weight="normal" text-decoration="none" x="1000" y="420">UNREGISTERED</text><text fill="#eeeeee" stroke="none" font-family="Arial" font-size="24px" font-style="normal" font-weight="normal" text-decoration="none" x="1000" y="450">UNREGISTERED</text><text fill="#eeeeee" stroke="none" font-family="Arial" font-size="24px" font-style="normal" font-weight="normal" text-decoration="none" x="1000" y="480">UNREGISTERED</text><text fill="#eeeeee" stroke="none" font-family="Arial" font-size="24px" font-style="normal" font-weight="normal" text-decoration="none" x="1000" y="510">UNREGISTERED</text><text fill="#eeeeee" stroke="none" font-family="Arial" font-size="24px" font-style="normal" font-weight="normal" text-decoration="none" x="1000" y="540">UNREGISTERED</text><text fill="#eeeeee" stroke="none" font-family="Arial" font-size="24px" font-style="normal" font-weight="normal" text-decoration="none" x="1000" y="570">UNREGISTERED</text><text fill="#eeeeee" stroke="none" font-family="Arial" font-size="24px" font-style="normal" font-weight="normal" text-decoration="none" x="1000" y="600">UNREGISTERED</text><text fill="#eeeeee" stroke="none" font-family="Arial" font-size="24px" font-style="normal" font-weight="normal" text-decoration="none" x="1000" y="630">UNREGISTERED</text><text fill="#eeeeee" stroke="none" font-family="Arial" font-size="24px" font-style="normal" font-weight="normal" text-decoration="none" x="1000" y="660">UNREGISTERED</text><text fill="#eeeeee" stroke="none" font-family="Arial" font-size="24px" font-style="normal" font-weight="normal" text-decoration="none" x="1200" y="0">UNREGISTERED</text><text fill="#eeeeee" stroke="none" font-family="Arial" font-size="24px" font-style="normal" font-weight="normal" text-decoration="none" x="1200" y="30">UNREGISTERED</text><text fill="#eeeeee" stroke="none" font-family="Arial" font-size="24px" font-style="normal" font-weight="normal" text-decoration="none" x="1200" y="60">UNREGISTERED</text><text fill="#eeeeee" stroke="none" font-family="Arial" font-size="24px" font-style="normal" font-weight="normal" text-decoration="none" x="1200" y="90">UNREGISTERED</text><text fill="#eeeeee" stroke="none" font-family="Arial" font-size="24px" font-style="normal" font-weight="normal" text-decoration="none" x="1200" y="120">UNREGISTERED</text><text fill="#eeeeee" stroke="none" font-family="Arial" font-size="24px" font-style="normal" font-weight="normal" text-decoration="none" x="1200" y="150">UNREGISTERED</text><text fill="#eeeeee" stroke="none" font-family="Arial" font-size="24px" font-style="normal" font-weight="normal" text-decoration="none" x="1200" y="180">UNREGISTERED</text><text fill="#eeeeee" stroke="none" font-family="Arial" font-size="24px" font-style="normal" font-weight="normal" text-decoration="none" x="1200" y="210">UNREGISTERED</text><text fill="#eeeeee" stroke="none" font-family="Arial" font-size="24px" font-style="normal" font-weight="normal" text-decoration="none" x="1200" y="240">UNREGISTERED</text><text fill="#eeeeee" stroke="none" font-family="Arial" font-size="24px" font-style="normal" font-weight="normal" text-decoration="none" x="1200" y="270">UNREGISTERED</text><text fill="#eeeeee" stroke="none" font-family="Arial" font-size="24px" font-style="normal" font-weight="normal" text-decoration="none" x="1200" y="300">UNREGISTERED</text><text fill="#eeeeee" stroke="none" font-family="Arial" font-size="24px" font-style="normal" font-weight="normal" text-decoration="none" x="1200" y="330">UNREGISTERED</text><text fill="#eeeeee" stroke="none" font-family="Arial" font-size="24px" font-style="normal" font-weight="normal" text-decoration="none" x="1200" y="360">UNREGISTERED</text><text fill="#eeeeee" stroke="none" font-family="Arial" font-size="24px" font-style="normal" font-weight="normal" text-decoration="none" x="1200" y="390">UNREGISTERED</text><text fill="#eeeeee" stroke="none" font-family="Arial" font-size="24px" font-style="normal" font-weight="normal" text-decoration="none" x="1200" y="420">UNREGISTERED</text><text fill="#eeeeee" stroke="none" font-family="Arial" font-size="24px" font-style="normal" font-weight="normal" text-decoration="none" x="1200" y="450">UNREGISTERED</text><text fill="#eeeeee" stroke="none" font-family="Arial" font-size="24px" font-style="normal" font-weight="normal" text-decoration="none" x="1200" y="480">UNREGISTERED</text><text fill="#eeeeee" stroke="none" font-family="Arial" font-size="24px" font-style="normal" font-weight="normal" text-decoration="none" x="1200" y="510">UNREGISTERED</text><text fill="#eeeeee" stroke="none" font-family="Arial" font-size="24px" font-style="normal" font-weight="normal" text-decoration="none" x="1200" y="540">UNREGISTERED</text><text fill="#eeeeee" stroke="none" font-family="Arial" font-size="24px" font-style="normal" font-weight="normal" text-decoration="none" x="1200" y="570">UNREGISTERED</text><text fill="#eeeeee" stroke="none" font-family="Arial" font-size="24px" font-style="normal" font-weight="normal" text-decoration="none" x="1200" y="600">UNREGISTERED</text><text fill="#eeeeee" stroke="none" font-family="Arial" font-size="24px" font-style="normal" font-weight="normal" text-decoration="none" x="1200" y="630">UNREGISTERED</text><text fill="#eeeeee" stroke="none" font-family="Arial" font-size="24px" font-style="normal" font-weight="normal" text-decoration="none" x="1200" y="660">UNREGISTERED</text><g transform="translate(-14,-6) scale(1,1)"><rect fill="#ffffff" stroke="none" x="24" y="16" width="1264" height="647"/></g><g transform="translate(-14,-6) scale(1,1)"><path fill="none" stroke="#000000" d="M 24 16 L 1288 16 L 1288 663 L 24 663 L 24 16 Z Z" stroke-miterlimit="10"/></g><g transform="translate(-14,-6) scale(1,1)"><rect fill="#ffffff" stroke="none" x="24" y="16" width="160" height="21"/></g><g transform="translate(-14,-6) scale(1,1)"><path fill="none" stroke="#000000" d="M 24 16 L 184 16 L 184 37 L 24 37 L 24 16 Z Z" stroke-miterlimit="10" stroke-width="2"/></g><g transform="translate(-14,-6) scale(1,1)"><path fill="none" stroke="#000000" d="M 24 664 L 24 16 L 184 16 L 184 664" stroke-miterlimit="10" stroke-width="2"/></g><g transform="translate(-14,-6) scale(1,1)"><g><path fill="none" stroke="none"/><text fill="#000000" stroke="none" font-family="Arial" font-size="13px" font-style="normal" font-weight="normal" text-decoration="none" x="81.602294921875" y="29">Usuário</text></g></g><g transform="translate(-14,-6) scale(1,1)"><rect fill="#ffffff" stroke="none" x="184" y="16" width="1104" height="21"/></g><g transform="translate(-14,-6) scale(1,1)"><path fill="none" stroke="#000000" d="M 184 16 L 1288 16 L 1288 37 L 184 37 L 184 16 Z Z" stroke-miterlimit="10" stroke-width="2"/></g><g transform="translate(-14,-6) scale(1,1)"><path fill="none" stroke="#000000" d="M 184 664 L 184 16 L 1288 16 L 1288 664" stroke-miterlimit="10" stroke-width="2"/></g><g transform="translate(-14,-6) scale(1,1)"><g><path fill="none" stroke="none"/><text fill="#000000" stroke="none" font-family="Arial" font-size="13px" font-style="normal" font-weight="normal" text-decoration="none" x="711.79638671875" y="29">Servidor</text></g></g><g transform="translate(-14,-6) scale(1,1)"><path fill="#C0C0C0" stroke="none" d="M 57 95 L 151.49169921875 95 Q 161.49169921875 95 161.49169921875 105 L 161.49169921875 125 Q 161.49169921875 135 151.49169921875 135 L 57 135 Q 47 135 47 125 L 47 105 Q 47 95 57 95 Z" opacity="0.2"/></g><g transform="translate(-14,-6) scale(1,1)"><path fill="#ffffff" stroke="none" d="M 50 88 L 144.49169921875 88 Q 154.49169921875 88 154.49169921875 98 L 154.49169921875 118 Q 154.49169921875 128 144.49169921875 128 L 50 128 Q 40 128 40 118 L 40 98 Q 40 88 50 88 Z"/></g><g transform="translate(-14,-6) scale(1,1)"><path fill="none" stroke="#000000" d="M 50 88 L 144.49169921875 88 Q 154.49169921875 88 154.49169921875 98 L 154.49169921875 118 Q 154.49169921875 128 144.49169921875 128 L 50 128 Q 40 128 40 118 L 40 98 Q 40 88 50 88 Z" stroke-miterlimit="10"/></g><g transform="translate(-14,-6) scale(1,1)"><g><path fill="none" stroke="none"/><text fill="#000000" stroke="none" font-family="Arial" font-size="13px" font-style="normal" font-weight="bold" text-decoration="none" x="44.5" y="105.5">Envia solicitação</text></g></g><g transform="translate(-14,-6) scale(1,1)"><path fill="#C0C0C0" stroke="none" d="M 95 64.5 C 95 59.2532944 99.2532944 55 104.5 55 C 109.7467056 55 114 59.2532944 114 64.5 C 114 69.7467056 109.7467056 74 104.5 74 C 99.2532944 74 95 69.7467056 95 64.5 Z" opacity="0.2"/></g><g transform="translate(-14,-6) scale(1,1)"><path fill="#000000" stroke="none" d="M 88 57.5 C 88 52.2532944 92.2532944 48 97.5 48 C 102.7467056 48 107 52.2532944 107 57.5 C 107 62.7467056 102.7467056 67 97.5 67 C 92.2532944 67 88 62.7467056 88 57.5 Z"/></g><g transform="translate(-14,-6) scale(1,1)"><path fill="none" stroke="#000000" d="M 97 68 L 97 87" stroke-miterlimit="10"/></g><g transform="translate(-14,-6) scale(1,1)"><path fill="none" stroke="#000000" d="M 92.79048224398402 76.83732514237585 L 97 87 L 101.20951775601598 76.83732514237585" stroke-miterlimit="10"/></g><g transform="translate(-14,-6) scale(1,1)"><path fill="#C0C0C0" stroke="none" d="M 265 95 L 430.2998046875 95 Q 440.2998046875 95 440.2998046875 105 L 440.2998046875 125 Q 440.2998046875 135 430.2998046875 135 L 265 135 Q 255 135 255 125 L 255 105 Q 255 95 265 95 Z" opacity="0.2"/></g><g transform="translate(-14,-6) scale(1,1)"><path fill="#ffffff" stroke="none" d="M 258 88 L 423.2998046875 88 Q 433.2998046875 88 433.2998046875 98 L 433.2998046875 118 Q 433.2998046875 128 423.2998046875 128 L 258 128 Q 248 128 248 118 L 248 98 Q 248 88 258 88 Z"/></g><g transform="translate(-14,-6) scale(1,1)"><path fill="none" stroke="#000000" d="M 258 88 L 423.2998046875 88 Q 433.2998046875 88 433.2998046875 98 L 433.2998046875 118 Q 433.2998046875 128 423.2998046875 128 L 258 128 Q 248 128 248 118 L 248 98 Q 248 88 258 88 Z" stroke-miterlimit="10"/></g><g transform="translate(-14,-6) scale(1,1)"><g><path fill="none" stroke="none"/><text fill="#000000" stroke="none" font-family="Arial" font-size="13px" font-style="normal" font-weight="bold" text-decoration="none" x="252.5" y="105.5">Buscador recebe solicitação</text></g></g><g transform="translate(-14,-6) scale(1,1)"><path fill="none" stroke="#000000" d="M 155 108 L 247 108" stroke-miterlimit="10"/></g><g transform="translate(-14,-6) scale(1,1)"><path fill="none" stroke="#000000" d="M 236.83732514237585 112.20951775601598 L 247 108 L 236.83732514237585 103.79048224398402" stroke-miterlimit="10"/></g><g transform="translate(-14,-6) scale(1,1)"><path fill="#C0C0C0" stroke="none" d="M 545 95 L 721.1416015625 95 Q 731.1416015625 95 731.1416015625 105 L 731.1416015625 125 Q 731.1416015625 135 721.1416015625 135 L 545 135 Q 535 135 535 125 L 535 105 Q 535 95 545 95 Z" opacity="0.2"/></g><g transform="translate(-14,-6) scale(1,1)"><path fill="#ffffff" stroke="none" d="M 538 88 L 714.1416015625 88 Q 724.1416015625 88 724.1416015625 98 L 724.1416015625 118 Q 724.1416015625 128 714.1416015625 128 L 538 128 Q 528 128 528 118 L 528 98 Q 528 88 538 88 Z"/></g><g transform="translate(-14,-6) scale(1,1)"><path fill="none" stroke="#000000" d="M 538 88 L 714.1416015625 88 Q 724.1416015625 88 724.1416015625 98 L 724.1416015625 118 Q 724.1416015625 128 714.1416015625 128 L 538 128 Q 528 128 528 118 L 528 98 Q 528 88 538 88 Z" stroke-miterlimit="10"/></g><g transform="translate(-14,-6) scale(1,1)"><g><path fill="none" stroke="none"/><text fill="#000000" stroke="none" font-family="Arial" font-size="13px" font-style="normal" font-weight="bold" text-decoration="none" x="532.5" y="105.5">DNS realiza conversão para IP</text></g></g><g transform="translate(-14,-6) scale(1,1)"><path fill="none" stroke="#000000" d="M 434 108 L 527 108" stroke-miterlimit="10"/></g><g transform="translate(-14,-6) scale(1,1)"><path fill="none" stroke="#000000" d="M 516.8373251423759 112.20951775601598 L 527 108 L 516.8373251423758 103.79048224398402" stroke-miterlimit="10"/></g><g transform="translate(-14,-6) scale(1,1)"><path fill="#C0C0C0" stroke="none" d="M 857 95 L 1163.84619140625 95 Q 1173.84619140625 95 1173.84619140625 105 L 1173.84619140625 125 Q 1173.84619140625 135 1163.84619140625 135 L 857 135 Q 847 135 847 125 L 847 105 Q 847 95 857 95 Z" opacity="0.2"/></g><g transform="translate(-14,-6) scale(1,1)"><path fill="#ffffff" stroke="none" d="M 850 88 L 1156.84619140625 88 Q 1166.84619140625 88 1166.84619140625 98 L 1166.84619140625 118 Q 1166.84619140625 128 1156.84619140625 128 L 850 128 Q 840 128 840 118 L 840 98 Q 840 88 850 88 Z"/></g><g transform="translate(-14,-6) scale(1,1)"><path fill="none" stroke="#000000" d="M 850 88 L 1156.84619140625 88 Q 1166.84619140625 88 1166.84619140625 98 L 1166.84619140625 118 Q 1166.84619140625 128 1156.84619140625 128 L 850 128 Q 840 128 840 118 L 840 98 Q 840 88 850 88 Z" stroke-miterlimit="10"/></g><g transform="translate(-14,-6) scale(1,1)"><g><path fill="none" stroke="none"/><text fill="#000000" stroke="none" font-family="Arial" font-size="13px" font-style="normal" font-weight="bold" text-decoration="none" x="844.5" y="105.5">Fetcher retorna de acordo com o tipo de requisição</text></g></g><g transform="translate(-14,-6) scale(1,1)"><path fill="none" stroke="#000000" d="M 725 108 L 839 108" stroke-miterlimit="10"/></g><g transform="translate(-14,-6) scale(1,1)"><path fill="none" stroke="#000000" d="M 828.8373251423759 112.20951775601598 L 839 108 L 828.8373251423758 103.79048224398402" stroke-miterlimit="10"/></g><g transform="translate(-14,-6) scale(1,1)"><path fill="#C0C0C0" stroke="none" d="M 921 207 L 1103.63525390625 207 Q 1113.63525390625 207 1113.63525390625 217 L 1113.63525390625 237 Q 1113.63525390625 247 1103.63525390625 247 L 921 247 Q 911 247 911 237 L 911 217 Q 911 207 921 207 Z" opacity="0.2"/></g><g transform="translate(-14,-6) scale(1,1)"><path fill="#ffffff" stroke="none" d="M 914 200 L 1096.63525390625 200 Q 1106.63525390625 200 1106.63525390625 210 L 1106.63525390625 230 Q 1106.63525390625 240 1096.63525390625 240 L 914 240 Q 904 240 904 230 L 904 210 Q 904 200 914 200 Z"/></g><g transform="translate(-14,-6) scale(1,1)"><path fill="none" stroke="#000000" d="M 914 200 L 1096.63525390625 200 Q 1106.63525390625 200 1106.63525390625 210 L 1106.63525390625 230 Q 1106.63525390625 240 1096.63525390625 240 L 914 240 Q 904 240 904 230 L 904 210 Q 904 200 914 200 Z" stroke-miterlimit="10"/></g><g transform="translate(-14,-6) scale(1,1)"><g><path fill="none" stroke="none"/><text fill="#000000" stroke="none" font-family="Arial" font-size="13px" font-style="normal" font-weight="bold" text-decoration="none" x="908.5" y="217.5">Cache verifica se possui dados</text></g></g><g transform="translate(-14,-6) scale(1,1)"><path fill="none" stroke="#000000" d="M 1003 129 L 1005 199" stroke-miterlimit="10"/></g><g transform="translate(-14,-6) scale(1,1)"><path fill="none" stroke="#000000" d="M 1000.5019556671291 188.96169351038094 L 1005 199 L 1008.9175569405878 188.7212477597107" stroke-miterlimit="10"/></g><g transform="translate(-14,-6) scale(1,1)"><path fill="#C0C0C0" stroke="none" d="M 735 231.5 L 778.5 207 L 821 231.5 L 778.5 255 L 735 231.5" opacity="0.2"/></g><g transform="translate(-14,-6) scale(1,1)"><path fill="#ffffff" stroke="none" d="M 728 224 L 771 200 L 814 224 L 771 248 L 728 224"/></g><g transform="translate(-14,-6) scale(1,1)"><path fill="none" stroke="#000000" d="M 728 224 L 771 200 L 814 224 L 771 248 L 728 224 L 728 224" stroke-miterlimit="10"/></g><g transform="translate(-14,-6) scale(1,1)"><g><path fill="none" stroke="none"/><text fill="#000000" stroke="none" font-family="Arial" font-size="13px" font-style="normal" font-weight="normal" text-decoration="none" x="749" y="166">Possui</text><text fill="#000000" stroke="none" font-family="Arial" font-size="13px" font-style="normal" font-weight="normal" text-decoration="none" x="749" y="179">dados?</text></g></g><g transform="translate(-14,-6) scale(1,1)"><path fill="#C0C0C0" stroke="none" d="M 473 207 L 636.0908203125 207 Q 646.0908203125 207 646.0908203125 217 L 646.0908203125 237 Q 646.0908203125 247 636.0908203125 247 L 473 247 Q 463 247 463 237 L 463 217 Q 463 207 473 207 Z" opacity="0.2"/></g><g transform="translate(-14,-6) scale(1,1)"><path fill="#ffffff" stroke="none" d="M 466 200 L 629.0908203125 200 Q 639.0908203125 200 639.0908203125 210 L 639.0908203125 230 Q 639.0908203125 240 629.0908203125 240 L 466 240 Q 456 240 456 230 L 456 210 Q 456 200 466 200 Z"/></g><g transform="translate(-14,-6) scale(1,1)"><path fill="none" stroke="#000000" d="M 466 200 L 629.0908203125 200 Q 639.0908203125 200 639.0908203125 210 L 639.0908203125 230 Q 639.0908203125 240 629.0908203125 240 L 466 240 Q 456 240 456 230 L 456 210 Q 456 200 466 200 Z" stroke-miterlimit="10"/></g><g transform="translate(-14,-6) scale(1,1)"><g><path fill="none" stroke="none"/><text fill="#000000" stroke="none" font-family="Arial" font-size="13px" font-style="normal" font-weight="bold" text-decoration="none" x="460.5" y="217.5">Retorna o que tem no cache</text></g></g><g transform="translate(-14,-6) scale(1,1)"><path fill="none" stroke="#000000" d="M 727 223 L 640 222" stroke-miterlimit="10"/></g><g transform="translate(-14,-6) scale(1,1)"><path fill="none" stroke="#000000" d="M 650.2103856543683 217.90756493160015 L 640 222 L 650.1136215231649 226.32604434630252" stroke-miterlimit="10"/></g><g transform="translate(-14,-6) scale(1,1)"><g><path fill="none" stroke="none"/><text fill="#000000" stroke="none" font-family="Arial" font-size="13px" font-style="normal" font-weight="normal" text-decoration="none" x="670.5" y="241.5">Sim</text></g></g><g transform="translate(-14,-6) scale(1,1)"><path fill="none" stroke="#000000" d="M 903 222 L 815 223" stroke-miterlimit="10"/></g><g transform="translate(-14,-6) scale(1,1)"><path fill="none" stroke="#000000" d="M 825.1141864159288 218.6752765240026 L 815 223 L 825.2098510975225 227.09376850425363" stroke-miterlimit="10"/></g><g transform="translate(-14,-6) scale(1,1)"><path fill="none" stroke="#000000" d="M 771 249 L 771 295" stroke-miterlimit="10"/></g><g transform="translate(-14,-6) scale(1,1)"><path fill="none" stroke="#000000" d="M 766.790482243984 284.83732514237585 L 771 295 L 775.209517756016 284.83732514237585" stroke-miterlimit="10"/></g><g transform="translate(-14,-6) scale(1,1)"><g><path fill="none" stroke="none"/><text fill="#000000" stroke="none" font-family="Arial" font-size="13px" font-style="normal" font-weight="normal" text-decoration="none" x="773.5" y="275.5">Não</text></g></g><g transform="translate(-14,-6) scale(1,1)"><path fill="#C0C0C0" stroke="none" d="M 729 303 L 827.08447265625 303 Q 837.08447265625 303 837.08447265625 313 L 837.08447265625 333 Q 837.08447265625 343 827.08447265625 343 L 729 343 Q 719 343 719 333 L 719 313 Q 719 303 729 303 Z" opacity="0.2"/></g><g transform="translate(-14,-6) scale(1,1)"><path fill="#ffffff" stroke="none" d="M 722 296 L 820.08447265625 296 Q 830.08447265625 296 830.08447265625 306 L 830.08447265625 326 Q 830.08447265625 336 820.08447265625 336 L 722 336 Q 712 336 712 326 L 712 306 Q 712 296 722 296 Z"/></g><g transform="translate(-14,-6) scale(1,1)"><path fill="none" stroke="#000000" d="M 722 296 L 820.08447265625 296 Q 830.08447265625 296 830.08447265625 306 L 830.08447265625 326 Q 830.08447265625 336 820.08447265625 336 L 722 336 Q 712 336 712 326 L 712 306 Q 712 296 722 296 Z" stroke-miterlimit="10"/></g><g transform="translate(-14,-6) scale(1,1)"><g><path fill="none" stroke="none"/><text fill="#000000" stroke="none" font-family="Arial" font-size="13px" font-style="normal" font-weight="bold" text-decoration="none" x="716.5" y="313.5">Busca no storage</text></g></g><g transform="translate(-14,-6) scale(1,1)"><path fill="none" stroke="#000000" d="M 711 316 L 485 316" stroke-miterlimit="10"/></g><g transform="translate(-14,-6) scale(1,1)"><path fill="none" stroke="#000000" d="M 495.16267485762415 311.790482243984 L 485 316 L 495.16267485762415 320.209517756016" stroke-miterlimit="10"/></g><g transform="translate(-14,-6) scale(1,1)"><path fill="none" stroke="#000000" d="M 503 241 L 390 295" stroke-miterlimit="10"/></g><g transform="translate(-14,-6) scale(1,1)"><path fill="none" stroke="#000000" d="M 397.3544394067704 286.8200109405854 L 390 295 L 400.98449971029675 294.4162482424091" stroke-miterlimit="10"/></g><g transform="translate(-14,-6) scale(1,1)"><path fill="#C0C0C0" stroke="none" d="M 225 303 L 481.3125 303 Q 491.3125 303 491.3125 313 L 491.3125 333 Q 491.3125 343 481.3125 343 L 225 343 Q 215 343 215 333 L 215 313 Q 215 303 225 303 Z" opacity="0.2"/></g><g transform="translate(-14,-6) scale(1,1)"><path fill="#ffffff" stroke="none" d="M 218 296 L 474.3125 296 Q 484.3125 296 484.3125 306 L 484.3125 326 Q 484.3125 336 474.3125 336 L 218 336 Q 208 336 208 326 L 208 306 Q 208 296 218 296 Z"/></g><g transform="translate(-14,-6) scale(1,1)"><path fill="none" stroke="#000000" d="M 218 296 L 474.3125 296 Q 484.3125 296 484.3125 306 L 484.3125 326 Q 484.3125 336 474.3125 336 L 218 336 Q 208 336 208 326 L 208 306 Q 208 296 218 296 Z" stroke-miterlimit="10"/></g><g transform="translate(-14,-6) scale(1,1)"><g><path fill="none" stroke="none"/><text fill="#000000" stroke="none" font-family="Arial" font-size="13px" font-style="normal" font-weight="bold" text-decoration="none" x="212.5" y="313.5">Extrator de links normaliza e mapeia dados</text></g></g><g transform="translate(-14,-6) scale(1,1)"><path fill="#C0C0C0" stroke="none" d="M 225 423 L 490.67529296875 423 Q 500.67529296875 423 500.67529296875 433 L 500.67529296875 453 Q 500.67529296875 463 490.67529296875 463 L 225 463 Q 215 463 215 453 L 215 433 Q 215 423 225 423 Z" opacity="0.2"/></g><g transform="translate(-14,-6) scale(1,1)"><path fill="#ffffff" stroke="none" d="M 218 416 L 483.67529296875 416 Q 493.67529296875 416 493.67529296875 426 L 493.67529296875 446 Q 493.67529296875 456 483.67529296875 456 L 218 456 Q 208 456 208 446 L 208 426 Q 208 416 218 416 Z"/></g><g transform="translate(-14,-6) scale(1,1)"><path fill="none" stroke="#000000" d="M 218 416 L 483.67529296875 416 Q 493.67529296875 416 493.67529296875 426 L 493.67529296875 446 Q 493.67529296875 456 483.67529296875 456 L 218 456 Q 208 456 208 446 L 208 426 Q 208 416 218 416 Z" stroke-miterlimit="10"/></g><g transform="translate(-14,-6) scale(1,1)"><g><path fill="none" stroke="none"/><text fill="#000000" stroke="none" font-family="Arial" font-size="13px" font-style="normal" font-weight="bold" text-decoration="none" x="212.5" y="433.5">Extrator filtra URL de acordo com requisição</text></g></g><g transform="translate(-14,-6) scale(1,1)"><path fill="none" stroke="#000000" d="M 347 337 L 349 415" stroke-miterlimit="10"/></g><g transform="translate(-14,-6) scale(1,1)"><path fill="none" stroke="#000000" d="M 344.5313695737947 404.94856517138015 L 349 415 L 352.9476388509854 404.73276339504196" stroke-miterlimit="10"/></g><g transform="translate(-14,-6) scale(1,1)"><path fill="#C0C0C0" stroke="none" d="M 313 519 L 393.736328125 519 Q 403.736328125 519 403.736328125 529 L 403.736328125 549 Q 403.736328125 559 393.736328125 559 L 313 559 Q 303 559 303 549 L 303 529 Q 303 519 313 519 Z" opacity="0.2"/></g><g transform="translate(-14,-6) scale(1,1)"><path fill="#ffffff" stroke="none" d="M 306 512 L 386.736328125 512 Q 396.736328125 512 396.736328125 522 L 396.736328125 542 Q 396.736328125 552 386.736328125 552 L 306 552 Q 296 552 296 542 L 296 522 Q 296 512 306 512 Z"/></g><g transform="translate(-14,-6) scale(1,1)"><path fill="none" stroke="#000000" d="M 306 512 L 386.736328125 512 Q 396.736328125 512 396.736328125 522 L 396.736328125 542 Q 396.736328125 552 386.736328125 552 L 306 552 Q 296 552 296 542 L 296 522 Q 296 512 306 512 Z" stroke-miterlimit="10"/></g><g transform="translate(-14,-6) scale(1,1)"><g><path fill="none" stroke="none"/><text fill="#000000" stroke="none" font-family="Arial" font-size="13px" font-style="normal" font-weight="bold" text-decoration="none" x="300.5" y="529.5">Realiza de-dup</text></g></g><g transform="translate(-14,-6) scale(1,1)"><path fill="none" stroke="#000000" d="M 349 457 L 347 511" stroke-miterlimit="10"/></g><g transform="translate(-14,-6) scale(1,1)"><path fill="none" stroke="#000000" d="M 343.1695039351113 500.6884870219316 L 347 511 L 351.58277100829406 501.0000895061236" stroke-miterlimit="10"/></g><g transform="translate(-14,-6) scale(1,1)"><path fill="#C0C0C0" stroke="none" d="M 49 519 L 155.5078125 519 Q 165.5078125 519 165.5078125 529 L 165.5078125 549 Q 165.5078125 559 155.5078125 559 L 49 559 Q 39 559 39 549 L 39 529 Q 39 519 49 519 Z" opacity="0.2"/></g><g transform="translate(-14,-6) scale(1,1)"><path fill="#ffffff" stroke="none" d="M 42 512 L 148.5078125 512 Q 158.5078125 512 158.5078125 522 L 158.5078125 542 Q 158.5078125 552 148.5078125 552 L 42 552 Q 32 552 32 542 L 32 522 Q 32 512 42 512 Z"/></g><g transform="translate(-14,-6) scale(1,1)"><path fill="none" stroke="#000000" d="M 42 512 L 148.5078125 512 Q 158.5078125 512 158.5078125 522 L 158.5078125 542 Q 158.5078125 552 148.5078125 552 L 42 552 Q 32 552 32 542 L 32 522 Q 32 512 42 512 Z" stroke-miterlimit="10"/></g><g transform="translate(-14,-6) scale(1,1)"><g><path fill="none" stroke="none"/><text fill="#000000" stroke="none" font-family="Arial" font-size="13px" font-style="normal" font-weight="bold" text-decoration="none" x="36.5" y="529.5">Visualiza conteúdo</text></g></g><g transform="translate(-14,-6) scale(1,1)"><path fill="none" stroke="#000000" d="M 295 532 L 160 532" stroke-miterlimit="10"/></g><g transform="translate(-14,-6) scale(1,1)"><path fill="none" stroke="#000000" d="M 170.16267485762415 527.790482243984 L 160 532 L 170.16267485762415 536.209517756016" stroke-miterlimit="10"/></g><g transform="translate(-14,-6) scale(1,1)"><path fill="#C0C0C0" stroke="none" d="M 95 635.5 C 95 628.59644 100.59644 623 107.5 623 C 114.40356 623 120 628.59644 120 635.5 C 120 642.40356 114.40356 648 107.5 648 C 100.59644 648 95 642.40356 95 635.5 Z" opacity="0.2"/></g><g transform="translate(-14,-6) scale(1,1)"><path fill="none" stroke="#000000" d="M 88 628.5 C 88 621.59644 93.59644 616 100.5 616 C 107.40356 616 113 621.59644 113 628.5 C 113 635.40356 107.40356 641 100.5 641 C 93.59644 641 88 635.40356 88 628.5 Z" stroke-miterlimit="10"/></g><g transform="translate(-14,-6) scale(1,1)"><path fill="#000000" stroke="none" d="M 93 628.5 C 93 624.357864 96.357864 621 100.5 621 C 104.642136 621 108 624.357864 108 628.5 C 108 632.642136 104.642136 636 100.5 636 C 96.357864 636 93 632.642136 93 628.5 Z"/></g><g transform="translate(-14,-6) scale(1,1)"><path fill="none" stroke="#000000" d="M 96 553 L 99 615" stroke-miterlimit="10"/></g><g transform="translate(-14,-6) scale(1,1)"><path fill="none" stroke="#000000" d="M 94.30423382312166 605.0526495984063 L 99 615 L 102.7134308172685 604.6457529696573" stroke-miterlimit="10"/></g></g></svg>